<?xml version="1.0" encoding="UTF-8"?>
<svg xmlns="http://www.w3.org/2000/svg" xmlns:xlink="http://www.w3.org/1999/xlink" width="255.11811" height="170.07874" viewBox="0 0 255.11811 170.07874">
<defs>
<g>
<g id="glyph-0-0">
<path d="M 1 0 L 1 -0.359375 L 1.890625 -0.359375 L 1.890625 -4.609375 L 0.859375 -3.9375 L 0.859375 -4.390625 L 2.09375 -5.203125 L 2.578125 -5.203125 L 2.578125 -0.359375 L 3.453125 -0.359375 L 3.453125 0 Z M 1 0 "/>
</g>
<g id="glyph-0-1">
<path d="M 0.65625 -0.359375 C 0.65625 -0.484375 0.695312 -0.585938 0.78125 -0.671875 C 0.875 -0.765625 0.984375 -0.8125 1.109375 -0.8125 C 1.234375 -0.8125 1.335938 -0.765625 1.421875 -0.671875 C 1.515625 -0.585938 1.5625 -0.484375 1.5625 -0.359375 C 1.5625 -0.234375 1.515625 -0.125 1.421875 -0.03125 C 1.335938 0.0507812 1.234375 0.09375 1.109375 0.09375 C 0.984375 0.09375 0.875 0.0507812 0.78125 -0.03125 C 0.695312 -0.125 0.65625 -0.234375 0.65625 -0.359375 Z M 0.65625 -0.359375 "/>
</g>
<g id="glyph-0-2">
<path d="M 2.21875 -0.234375 C 2.570312 -0.234375 2.832031 -0.425781 3 -0.8125 C 3.175781 -1.195312 3.265625 -1.773438 3.265625 -2.546875 C 3.265625 -3.316406 3.175781 -3.894531 3 -4.28125 C 2.832031 -4.664062 2.570312 -4.859375 2.21875 -4.859375 C 1.875 -4.859375 1.613281 -4.664062 1.4375 -4.28125 C 1.269531 -3.894531 1.1875 -3.316406 1.1875 -2.546875 C 1.1875 -1.773438 1.269531 -1.195312 1.4375 -0.8125 C 1.613281 -0.425781 1.875 -0.234375 2.21875 -0.234375 Z M 2.21875 0.09375 C 1.664062 0.09375 1.234375 -0.132812 0.921875 -0.59375 C 0.617188 -1.0625 0.46875 -1.710938 0.46875 -2.546875 C 0.46875 -3.378906 0.617188 -4.03125 0.921875 -4.5 C 1.234375 -4.96875 1.664062 -5.203125 2.21875 -5.203125 C 2.78125 -5.203125 3.210938 -4.96875 3.515625 -4.5 C 3.828125 -4.03125 3.984375 -3.378906 3.984375 -2.546875 C 3.984375 -1.710938 3.828125 -1.0625 3.515625 -0.59375 C 3.210938 -0.132812 2.78125 0.09375 2.21875 0.09375 Z M 2.21875 0.09375 "/>
</g>
<g id="glyph-0-3">
<path d="M 3.515625 -5.109375 L 3.515625 -4.546875 L 1.1875 -4.546875 L 1.1875 -3.078125 C 1.300781 -3.160156 1.4375 -3.222656 1.59375 -3.265625 C 1.75 -3.304688 1.925781 -3.328125 2.125 -3.328125 C 2.675781 -3.328125 3.109375 -3.171875 3.421875 -2.859375 C 3.742188 -2.554688 3.90625 -2.140625 3.90625 -1.609375 C 3.90625 -1.078125 3.742188 -0.660156 3.421875 -0.359375 C 3.109375 -0.0546875 2.660156 0.09375 2.078125 0.09375 C 1.835938 0.09375 1.59375 0.0625 1.34375 0 C 1.101562 -0.0507812 0.851562 -0.132812 0.59375 -0.25 L 0.59375 -1.234375 L 0.984375 -1.234375 C 1.003906 -0.910156 1.101562 -0.660156 1.28125 -0.484375 C 1.46875 -0.316406 1.734375 -0.234375 2.078125 -0.234375 C 2.429688 -0.234375 2.703125 -0.351562 2.890625 -0.59375 C 3.085938 -0.832031 3.1875 -1.171875 3.1875 -1.609375 C 3.1875 -2.054688 3.085938 -2.394531 2.890625 -2.625 C 2.703125 -2.863281 2.429688 -2.984375 2.078125 -2.984375 C 1.867188 -2.984375 1.6875 -2.945312 1.53125 -2.875 C 1.375 -2.800781 1.234375 -2.691406 1.109375 -2.546875 L 0.828125 -2.546875 L 0.828125 -5.109375 Z M 3.515625 -5.109375 "/>
</g>
<g id="glyph-0-4">
<path d="M 0.890625 -3.890625 L 0.515625 -3.890625 L 0.515625 -4.796875 C 0.753906 -4.921875 1 -5.019531 1.25 -5.09375 C 1.5 -5.164062 1.738281 -5.203125 1.96875 -5.203125 C 2.5 -5.203125 2.914062 -5.070312 3.21875 -4.8125 C 3.53125 -4.550781 3.6875 -4.203125 3.6875 -3.765625 C 3.6875 -3.265625 3.34375 -2.664062 2.65625 -1.96875 C 2.59375 -1.914062 2.550781 -1.875 2.53125 -1.84375 L 1.234375 -0.5625 L 3.359375 -0.5625 L 3.359375 -1.1875 L 3.765625 -1.1875 L 3.765625 0 L 0.46875 0 L 0.46875 -0.375 L 2.03125 -1.921875 C 2.363281 -2.265625 2.601562 -2.578125 2.75 -2.859375 C 2.894531 -3.140625 2.96875 -3.441406 2.96875 -3.765625 C 2.96875 -4.109375 2.878906 -4.375 2.703125 -4.5625 C 2.523438 -4.757812 2.28125 -4.859375 1.96875 -4.859375 C 1.644531 -4.859375 1.390625 -4.773438 1.203125 -4.609375 C 1.023438 -4.453125 0.921875 -4.210938 0.890625 -3.890625 Z M 0.890625 -3.890625 "/>
</g>
<g id="glyph-0-5">
<path d="M 0.6875 -4.890625 C 0.945312 -4.984375 1.195312 -5.054688 1.4375 -5.109375 C 1.6875 -5.171875 1.921875 -5.203125 2.140625 -5.203125 C 2.640625 -5.203125 3.023438 -5.09375 3.296875 -4.875 C 3.578125 -4.65625 3.71875 -4.351562 3.71875 -3.96875 C 3.71875 -3.664062 3.617188 -3.410156 3.421875 -3.203125 C 3.234375 -2.992188 2.960938 -2.851562 2.609375 -2.78125 C 3.023438 -2.726562 3.347656 -2.578125 3.578125 -2.328125 C 3.816406 -2.085938 3.9375 -1.769531 3.9375 -1.375 C 3.9375 -0.894531 3.773438 -0.53125 3.453125 -0.28125 C 3.128906 -0.03125 2.671875 0.09375 2.078125 0.09375 C 1.804688 0.09375 1.539062 0.0625 1.28125 0 C 1.03125 -0.0507812 0.78125 -0.132812 0.53125 -0.25 L 0.53125 -1.234375 L 0.921875 -1.234375 C 0.941406 -0.910156 1.050781 -0.660156 1.25 -0.484375 C 1.445312 -0.316406 1.722656 -0.234375 2.078125 -0.234375 C 2.429688 -0.234375 2.707031 -0.332031 2.90625 -0.53125 C 3.113281 -0.738281 3.21875 -1.019531 3.21875 -1.375 C 3.21875 -1.769531 3.113281 -2.070312 2.90625 -2.28125 C 2.695312 -2.488281 2.390625 -2.59375 1.984375 -2.59375 L 1.671875 -2.59375 L 1.671875 -2.9375 L 1.828125 -2.9375 C 2.234375 -2.9375 2.535156 -3.019531 2.734375 -3.1875 C 2.929688 -3.351562 3.03125 -3.601562 3.03125 -3.9375 C 3.03125 -4.226562 2.945312 -4.453125 2.78125 -4.609375 C 2.625 -4.773438 2.390625 -4.859375 2.078125 -4.859375 C 1.765625 -4.859375 1.523438 -4.785156 1.359375 -4.640625 C 1.191406 -4.492188 1.09375 -4.273438 1.0625 -3.984375 L 0.6875 -3.984375 Z M 0.6875 -4.890625 "/>
</g>
<g id="glyph-0-6">
<path d="M 2.4375 -1.734375 L 2.4375 -4.4375 L 0.703125 -1.734375 Z M 3.953125 0 L 1.625 0 L 1.625 -0.359375 L 2.4375 -0.359375 L 2.4375 -1.359375 L 0.21875 -1.359375 L 0.21875 -1.734375 L 2.453125 -5.203125 L 3.125 -5.203125 L 3.125 -1.734375 L 4.109375 -1.734375 L 4.109375 -1.359375 L 3.125 -1.359375 L 3.125 -0.359375 L 3.953125 -0.359375 Z M 3.953125 0 "/>
</g>
<g id="glyph-0-7">
<path d="M 4.9375 -1.34375 C 4.78125 -0.875 4.523438 -0.515625 4.171875 -0.265625 C 3.816406 -0.0234375 3.367188 0.09375 2.828125 0.09375 C 2.492188 0.09375 2.1875 0.0351562 1.90625 -0.078125 C 1.625 -0.191406 1.375 -0.359375 1.15625 -0.578125 C 0.894531 -0.828125 0.703125 -1.113281 0.578125 -1.4375 C 0.453125 -1.769531 0.390625 -2.140625 0.390625 -2.546875 C 0.390625 -3.335938 0.617188 -3.976562 1.078125 -4.46875 C 1.535156 -4.957031 2.140625 -5.203125 2.890625 -5.203125 C 3.171875 -5.203125 3.46875 -5.164062 3.78125 -5.09375 C 4.09375 -5.019531 4.429688 -4.90625 4.796875 -4.75 L 4.796875 -3.578125 L 4.40625 -3.578125 C 4.320312 -4.003906 4.148438 -4.316406 3.890625 -4.515625 C 3.640625 -4.722656 3.285156 -4.828125 2.828125 -4.828125 C 2.285156 -4.828125 1.875 -4.632812 1.59375 -4.25 C 1.3125 -3.863281 1.171875 -3.296875 1.171875 -2.546875 C 1.171875 -1.796875 1.3125 -1.226562 1.59375 -0.84375 C 1.875 -0.457031 2.285156 -0.265625 2.828125 -0.265625 C 3.210938 -0.265625 3.523438 -0.351562 3.765625 -0.53125 C 4.015625 -0.71875 4.195312 -0.988281 4.3125 -1.34375 Z M 4.9375 -1.34375 "/>
</g>
<g id="glyph-0-8">
<path d="M 2.78125 -1.140625 L 2.78125 -1.90625 L 1.96875 -1.90625 C 1.65625 -1.90625 1.421875 -1.835938 1.265625 -1.703125 C 1.117188 -1.566406 1.046875 -1.363281 1.046875 -1.09375 C 1.046875 -0.84375 1.125 -0.640625 1.28125 -0.484375 C 1.4375 -0.335938 1.644531 -0.265625 1.90625 -0.265625 C 2.164062 -0.265625 2.375 -0.34375 2.53125 -0.5 C 2.695312 -0.664062 2.78125 -0.878906 2.78125 -1.140625 Z M 3.421875 -2.265625 L 3.421875 -0.359375 L 3.96875 -0.359375 L 3.96875 0 L 2.78125 0 L 2.78125 -0.390625 C 2.644531 -0.222656 2.484375 -0.0976562 2.296875 -0.015625 C 2.117188 0.0546875 1.910156 0.09375 1.671875 0.09375 C 1.265625 0.09375 0.941406 -0.0078125 0.703125 -0.21875 C 0.460938 -0.4375 0.34375 -0.726562 0.34375 -1.09375 C 0.34375 -1.46875 0.476562 -1.757812 0.75 -1.96875 C 1.019531 -2.175781 1.40625 -2.28125 1.90625 -2.28125 L 2.78125 -2.28125 L 2.78125 -2.53125 C 2.78125 -2.800781 2.695312 -3.007812 2.53125 -3.15625 C 2.363281 -3.3125 2.128906 -3.390625 1.828125 -3.390625 C 1.578125 -3.390625 1.378906 -3.332031 1.234375 -3.21875 C 1.085938 -3.101562 0.992188 -2.9375 0.953125 -2.71875 L 0.625 -2.71875 L 0.625 -3.453125 C 0.84375 -3.546875 1.054688 -3.613281 1.265625 -3.65625 C 1.472656 -3.707031 1.675781 -3.734375 1.875 -3.734375 C 2.375 -3.734375 2.753906 -3.609375 3.015625 -3.359375 C 3.285156 -3.109375 3.421875 -2.742188 3.421875 -2.265625 Z M 3.421875 -2.265625 "/>
</g>
<g id="glyph-0-9">
<path d="M 0.75 -3.265625 L 0.203125 -3.265625 L 0.203125 -3.640625 L 0.75 -3.640625 L 0.75 -4.765625 L 1.390625 -4.765625 L 1.390625 -3.640625 L 2.578125 -3.640625 L 2.578125 -3.265625 L 1.390625 -3.265625 L 1.390625 -0.953125 C 1.390625 -0.648438 1.414062 -0.453125 1.46875 -0.359375 C 1.53125 -0.273438 1.644531 -0.234375 1.8125 -0.234375 C 1.96875 -0.234375 2.082031 -0.28125 2.15625 -0.375 C 2.238281 -0.476562 2.28125 -0.640625 2.28125 -0.859375 L 2.765625 -0.859375 C 2.742188 -0.523438 2.648438 -0.28125 2.484375 -0.125 C 2.328125 0.0195312 2.082031 0.09375 1.75 0.09375 C 1.382812 0.09375 1.125 0.015625 0.96875 -0.140625 C 0.820312 -0.304688 0.75 -0.578125 0.75 -0.953125 Z M 0.75 -3.265625 "/>
</g>
<g id="glyph-0-10">
<path d="M 3.796875 -1.75 L 1.078125 -1.75 L 1.078125 -1.71875 C 1.078125 -1.226562 1.171875 -0.859375 1.359375 -0.609375 C 1.546875 -0.359375 1.816406 -0.234375 2.171875 -0.234375 C 2.453125 -0.234375 2.679688 -0.304688 2.859375 -0.453125 C 3.035156 -0.597656 3.160156 -0.8125 3.234375 -1.09375 L 3.734375 -1.09375 C 3.628906 -0.695312 3.441406 -0.398438 3.171875 -0.203125 C 2.898438 -0.00390625 2.546875 0.09375 2.109375 0.09375 C 1.578125 0.09375 1.148438 -0.078125 0.828125 -0.421875 C 0.503906 -0.773438 0.34375 -1.238281 0.34375 -1.8125 C 0.34375 -2.394531 0.5 -2.859375 0.8125 -3.203125 C 1.132812 -3.554688 1.554688 -3.734375 2.078125 -3.734375 C 2.617188 -3.734375 3.035156 -3.5625 3.328125 -3.21875 C 3.628906 -2.882812 3.785156 -2.394531 3.796875 -1.75 Z M 3.046875 -2.109375 C 3.035156 -2.535156 2.945312 -2.851562 2.78125 -3.0625 C 2.613281 -3.28125 2.378906 -3.390625 2.078125 -3.390625 C 1.785156 -3.390625 1.554688 -3.28125 1.390625 -3.0625 C 1.222656 -2.851562 1.117188 -2.535156 1.078125 -2.109375 Z M 3.046875 -2.109375 "/>
</g>
<g id="glyph-0-11">
<path d="M 3.671875 -3.265625 L 3.671875 -0.078125 C 3.671875 0.441406 3.523438 0.84375 3.234375 1.125 C 2.953125 1.414062 2.546875 1.5625 2.015625 1.5625 C 1.773438 1.5625 1.546875 1.535156 1.328125 1.484375 C 1.109375 1.441406 0.898438 1.378906 0.703125 1.296875 L 0.703125 0.53125 L 1.03125 0.53125 C 1.070312 0.769531 1.164062 0.941406 1.3125 1.046875 C 1.46875 1.160156 1.6875 1.21875 1.96875 1.21875 C 2.34375 1.21875 2.613281 1.113281 2.78125 0.90625 C 2.957031 0.695312 3.046875 0.367188 3.046875 -0.078125 L 3.046875 -0.5625 C 2.921875 -0.332031 2.765625 -0.164062 2.578125 -0.0625 C 2.390625 0.0390625 2.15625 0.09375 1.875 0.09375 C 1.425781 0.09375 1.054688 -0.0820312 0.765625 -0.4375 C 0.484375 -0.789062 0.34375 -1.25 0.34375 -1.8125 C 0.34375 -2.382812 0.484375 -2.847656 0.765625 -3.203125 C 1.054688 -3.554688 1.425781 -3.734375 1.875 -3.734375 C 2.15625 -3.734375 2.390625 -3.675781 2.578125 -3.5625 C 2.765625 -3.457031 2.921875 -3.289062 3.046875 -3.0625 L 3.046875 -3.640625 L 4.28125 -3.640625 L 4.28125 -3.265625 Z M 3.046875 -2 C 3.046875 -2.4375 2.960938 -2.769531 2.796875 -3 C 2.628906 -3.226562 2.382812 -3.34375 2.0625 -3.34375 C 1.738281 -3.34375 1.492188 -3.210938 1.328125 -2.953125 C 1.160156 -2.703125 1.078125 -2.320312 1.078125 -1.8125 C 1.078125 -1.3125 1.160156 -0.929688 1.328125 -0.671875 C 1.492188 -0.421875 1.738281 -0.296875 2.0625 -0.296875 C 2.382812 -0.296875 2.628906 -0.410156 2.796875 -0.640625 C 2.960938 -0.867188 3.046875 -1.203125 3.046875 -1.640625 Z M 3.046875 -2 "/>
</g>
<g id="glyph-0-12">
<path d="M 2.109375 -0.234375 C 2.441406 -0.234375 2.691406 -0.367188 2.859375 -0.640625 C 3.035156 -0.910156 3.125 -1.300781 3.125 -1.8125 C 3.125 -2.332031 3.035156 -2.722656 2.859375 -2.984375 C 2.691406 -3.253906 2.441406 -3.390625 2.109375 -3.390625 C 1.765625 -3.390625 1.503906 -3.253906 1.328125 -2.984375 C 1.160156 -2.722656 1.078125 -2.332031 1.078125 -1.8125 C 1.078125 -1.300781 1.164062 -0.910156 1.34375 -0.640625 C 1.519531 -0.367188 1.773438 -0.234375 2.109375 -0.234375 Z M 2.109375 0.09375 C 1.578125 0.09375 1.148438 -0.078125 0.828125 -0.421875 C 0.503906 -0.773438 0.34375 -1.238281 0.34375 -1.8125 C 0.34375 -2.394531 0.503906 -2.859375 0.828125 -3.203125 C 1.148438 -3.554688 1.578125 -3.734375 2.109375 -3.734375 C 2.640625 -3.734375 3.0625 -3.554688 3.375 -3.203125 C 3.695312 -2.859375 3.859375 -2.394531 3.859375 -1.8125 C 3.859375 -1.238281 3.695312 -0.773438 3.375 -0.421875 C 3.0625 -0.078125 2.640625 0.09375 2.109375 0.09375 Z M 2.109375 0.09375 "/>
</g>
<g id="glyph-0-13">
<path d="M 3.34375 -3.640625 L 3.34375 -2.734375 L 2.984375 -2.734375 C 2.972656 -2.910156 2.921875 -3.039062 2.828125 -3.125 C 2.742188 -3.21875 2.613281 -3.265625 2.4375 -3.265625 C 2.132812 -3.265625 1.898438 -3.15625 1.734375 -2.9375 C 1.566406 -2.726562 1.484375 -2.425781 1.484375 -2.03125 L 1.484375 -0.359375 L 2.21875 -0.359375 L 2.21875 0 L 0.28125 0 L 0.28125 -0.359375 L 0.859375 -0.359375 L 0.859375 -3.28125 L 0.25 -3.28125 L 0.25 -3.640625 L 1.484375 -3.640625 L 1.484375 -2.984375 C 1.609375 -3.234375 1.765625 -3.421875 1.953125 -3.546875 C 2.148438 -3.671875 2.390625 -3.734375 2.671875 -3.734375 C 2.765625 -3.734375 2.867188 -3.722656 2.984375 -3.703125 C 3.097656 -3.691406 3.21875 -3.671875 3.34375 -3.640625 Z M 3.34375 -3.640625 "/>
</g>
<g id="glyph-0-14">
<path d="M 1.515625 0.671875 L 1.75 0.0625 L 0.390625 -3.265625 L -0.015625 -3.265625 L -0.015625 -3.640625 L 1.65625 -3.640625 L 1.65625 -3.265625 L 1.0625 -3.265625 L 2.09375 -0.765625 L 3.109375 -3.265625 L 2.578125 -3.265625 L 2.578125 -3.640625 L 3.9375 -3.640625 L 3.9375 -3.265625 L 3.53125 -3.265625 L 1.859375 0.828125 C 1.742188 1.109375 1.617188 1.300781 1.484375 1.40625 C 1.347656 1.507812 1.148438 1.5625 0.890625 1.5625 C 0.785156 1.5625 0.675781 1.550781 0.5625 1.53125 C 0.445312 1.507812 0.332031 1.484375 0.21875 1.453125 L 0.21875 0.75 L 0.546875 0.75 C 0.554688 0.90625 0.59375 1.015625 0.65625 1.078125 C 0.726562 1.148438 0.832031 1.1875 0.96875 1.1875 C 1.09375 1.1875 1.191406 1.148438 1.265625 1.078125 C 1.347656 1.015625 1.429688 0.878906 1.515625 0.671875 Z M 1.515625 0.671875 "/>
</g>
<g id="glyph-0-15">
<path d="M 3.265625 -1.390625 C 3.265625 -1.753906 3.171875 -2.035156 2.984375 -2.234375 C 2.804688 -2.441406 2.550781 -2.546875 2.21875 -2.546875 C 1.894531 -2.546875 1.640625 -2.441406 1.453125 -2.234375 C 1.273438 -2.035156 1.1875 -1.753906 1.1875 -1.390625 C 1.1875 -1.023438 1.273438 -0.738281 1.453125 -0.53125 C 1.640625 -0.332031 1.894531 -0.234375 2.21875 -0.234375 C 2.550781 -0.234375 2.804688 -0.332031 2.984375 -0.53125 C 3.171875 -0.738281 3.265625 -1.023438 3.265625 -1.390625 Z M 3.125 -3.875 C 3.125 -4.1875 3.046875 -4.425781 2.890625 -4.59375 C 2.734375 -4.769531 2.507812 -4.859375 2.21875 -4.859375 C 1.945312 -4.859375 1.726562 -4.769531 1.5625 -4.59375 C 1.40625 -4.425781 1.328125 -4.1875 1.328125 -3.875 C 1.328125 -3.5625 1.40625 -3.316406 1.5625 -3.140625 C 1.726562 -2.972656 1.945312 -2.890625 2.21875 -2.890625 C 2.507812 -2.890625 2.734375 -2.972656 2.890625 -3.140625 C 3.046875 -3.316406 3.125 -3.5625 3.125 -3.875 Z M 2.75 -2.71875 C 3.132812 -2.664062 3.4375 -2.519531 3.65625 -2.28125 C 3.875 -2.050781 3.984375 -1.753906 3.984375 -1.390625 C 3.984375 -0.910156 3.832031 -0.539062 3.53125 -0.28125 C 3.226562 -0.03125 2.789062 0.09375 2.21875 0.09375 C 1.65625 0.09375 1.222656 -0.03125 0.921875 -0.28125 C 0.617188 -0.539062 0.46875 -0.910156 0.46875 -1.390625 C 0.46875 -1.753906 0.578125 -2.050781 0.796875 -2.28125 C 1.015625 -2.519531 1.316406 -2.664062 1.703125 -2.71875 C 1.359375 -2.78125 1.09375 -2.910156 0.90625 -3.109375 C 0.726562 -3.304688 0.640625 -3.5625 0.640625 -3.875 C 0.640625 -4.28125 0.78125 -4.601562 1.0625 -4.84375 C 1.34375 -5.082031 1.726562 -5.203125 2.21875 -5.203125 C 2.71875 -5.203125 3.109375 -5.082031 3.390625 -4.84375 C 3.671875 -4.601562 3.8125 -4.28125 3.8125 -3.875 C 3.8125 -3.5625 3.71875 -3.304688 3.53125 -3.109375 C 3.351562 -2.910156 3.09375 -2.78125 2.75 -2.71875 Z M 2.75 -2.71875 "/>
</g>
<g id="glyph-0-16">
<path d="M 2.296875 -0.234375 C 2.609375 -0.234375 2.851562 -0.351562 3.03125 -0.59375 C 3.207031 -0.832031 3.296875 -1.171875 3.296875 -1.609375 C 3.296875 -2.046875 3.207031 -2.382812 3.03125 -2.625 C 2.851562 -2.863281 2.609375 -2.984375 2.296875 -2.984375 C 1.960938 -2.984375 1.707031 -2.867188 1.53125 -2.640625 C 1.363281 -2.410156 1.28125 -2.082031 1.28125 -1.65625 C 1.28125 -1.195312 1.367188 -0.84375 1.546875 -0.59375 C 1.722656 -0.351562 1.972656 -0.234375 2.296875 -0.234375 Z M 1.171875 -2.8125 C 1.328125 -2.976562 1.503906 -3.101562 1.703125 -3.1875 C 1.898438 -3.269531 2.117188 -3.3125 2.359375 -3.3125 C 2.867188 -3.3125 3.269531 -3.160156 3.5625 -2.859375 C 3.863281 -2.554688 4.015625 -2.140625 4.015625 -1.609375 C 4.015625 -1.085938 3.851562 -0.671875 3.53125 -0.359375 C 3.21875 -0.0546875 2.796875 0.09375 2.265625 0.09375 C 1.679688 0.09375 1.234375 -0.117188 0.921875 -0.546875 C 0.617188 -0.972656 0.46875 -1.585938 0.46875 -2.390625 C 0.46875 -3.273438 0.648438 -3.960938 1.015625 -4.453125 C 1.378906 -4.953125 1.898438 -5.203125 2.578125 -5.203125 C 2.753906 -5.203125 2.941406 -5.179688 3.140625 -5.140625 C 3.335938 -5.109375 3.539062 -5.054688 3.75 -4.984375 L 3.75 -4.15625 L 3.359375 -4.15625 C 3.328125 -4.382812 3.238281 -4.554688 3.09375 -4.671875 C 2.945312 -4.796875 2.75 -4.859375 2.5 -4.859375 C 2.050781 -4.859375 1.71875 -4.691406 1.5 -4.359375 C 1.289062 -4.023438 1.179688 -3.507812 1.171875 -2.8125 Z M 1.171875 -2.8125 "/>
</g>
<g id="glyph-0-17">
<path d="M 0.8125 -0.359375 L 0.8125 -4.953125 L 0.203125 -4.953125 L 0.203125 -5.3125 L 1.4375 -5.3125 L 1.4375 -3.0625 C 1.5625 -3.289062 1.71875 -3.457031 1.90625 -3.5625 C 2.09375 -3.675781 2.328125 -3.734375 2.609375 -3.734375 C 3.054688 -3.734375 3.421875 -3.554688 3.703125 -3.203125 C 3.984375 -2.847656 4.125 -2.382812 4.125 -1.8125 C 4.125 -1.25 3.984375 -0.789062 3.703125 -0.4375 C 3.421875 -0.0820312 3.054688 0.09375 2.609375 0.09375 C 2.328125 0.09375 2.09375 0.0390625 1.90625 -0.0625 C 1.71875 -0.164062 1.5625 -0.332031 1.4375 -0.5625 L 1.4375 0 L 0.203125 0 L 0.203125 -0.359375 Z M 1.4375 -1.640625 C 1.4375 -1.203125 1.519531 -0.867188 1.6875 -0.640625 C 1.851562 -0.410156 2.097656 -0.296875 2.421875 -0.296875 C 2.742188 -0.296875 2.984375 -0.421875 3.140625 -0.671875 C 3.304688 -0.929688 3.390625 -1.3125 3.390625 -1.8125 C 3.390625 -2.320312 3.304688 -2.703125 3.140625 -2.953125 C 2.984375 -3.210938 2.742188 -3.34375 2.421875 -3.34375 C 2.097656 -3.34375 1.851562 -3.226562 1.6875 -3 C 1.519531 -2.769531 1.4375 -2.4375 1.4375 -2 Z M 1.4375 -1.640625 "/>
</g>
<g id="glyph-0-18">
<path d="M 0.390625 -0.203125 L 0.390625 -1.046875 L 0.75 -1.046875 C 0.757812 -0.773438 0.84375 -0.570312 1 -0.4375 C 1.164062 -0.300781 1.40625 -0.234375 1.71875 -0.234375 C 2 -0.234375 2.210938 -0.285156 2.359375 -0.390625 C 2.515625 -0.503906 2.59375 -0.660156 2.59375 -0.859375 C 2.59375 -1.015625 2.535156 -1.140625 2.421875 -1.234375 C 2.316406 -1.335938 2.09375 -1.445312 1.75 -1.5625 L 1.28125 -1.71875 C 0.976562 -1.8125 0.753906 -1.929688 0.609375 -2.078125 C 0.472656 -2.234375 0.40625 -2.429688 0.40625 -2.671875 C 0.40625 -3.003906 0.523438 -3.265625 0.765625 -3.453125 C 1.003906 -3.640625 1.34375 -3.734375 1.78125 -3.734375 C 1.96875 -3.734375 2.164062 -3.707031 2.375 -3.65625 C 2.59375 -3.601562 2.8125 -3.53125 3.03125 -3.4375 L 3.03125 -2.640625 L 2.671875 -2.640625 C 2.660156 -2.878906 2.578125 -3.0625 2.421875 -3.1875 C 2.273438 -3.320312 2.066406 -3.390625 1.796875 -3.390625 C 1.535156 -3.390625 1.335938 -3.34375 1.203125 -3.25 C 1.066406 -3.15625 1 -3.015625 1 -2.828125 C 1 -2.679688 1.046875 -2.5625 1.140625 -2.46875 C 1.242188 -2.375 1.453125 -2.28125 1.765625 -2.1875 L 2.265625 -2.03125 C 2.609375 -1.925781 2.851562 -1.789062 3 -1.625 C 3.15625 -1.46875 3.234375 -1.265625 3.234375 -1.015625 C 3.234375 -0.671875 3.097656 -0.398438 2.828125 -0.203125 C 2.566406 -0.00390625 2.207031 0.09375 1.75 0.09375 C 1.507812 0.09375 1.28125 0.0664062 1.0625 0.015625 C 0.84375 -0.0234375 0.617188 -0.0976562 0.390625 -0.203125 Z M 0.390625 -0.203125 "/>
</g>
<g id="glyph-0-19">
<path d="M 1.734375 0 L 0.390625 -3.265625 L -0.015625 -3.265625 L -0.015625 -3.640625 L 1.65625 -3.640625 L 1.65625 -3.265625 L 1.0625 -3.265625 L 2.09375 -0.765625 L 3.109375 -3.265625 L 2.578125 -3.265625 L 2.578125 -3.640625 L 3.9375 -3.640625 L 3.9375 -3.265625 L 3.53125 -3.265625 L 2.1875 0 Z M 1.734375 0 "/>
</g>
<g id="glyph-0-20">
<path d="M 3.671875 -0.359375 L 4.28125 -0.359375 L 4.28125 0 L 3.046875 0 L 3.046875 -0.5625 C 2.921875 -0.332031 2.765625 -0.164062 2.578125 -0.0625 C 2.390625 0.0390625 2.15625 0.09375 1.875 0.09375 C 1.425781 0.09375 1.054688 -0.0820312 0.765625 -0.4375 C 0.484375 -0.789062 0.34375 -1.25 0.34375 -1.8125 C 0.34375 -2.382812 0.484375 -2.847656 0.765625 -3.203125 C 1.054688 -3.554688 1.425781 -3.734375 1.875 -3.734375 C 2.15625 -3.734375 2.390625 -3.675781 2.578125 -3.5625 C 2.765625 -3.457031 2.921875 -3.289062 3.046875 -3.0625 L 3.046875 -4.953125 L 2.453125 -4.953125 L 2.453125 -5.3125 L 3.671875 -5.3125 Z M 3.046875 -1.640625 L 3.046875 -2 C 3.046875 -2.4375 2.960938 -2.769531 2.796875 -3 C 2.628906 -3.226562 2.382812 -3.34375 2.0625 -3.34375 C 1.738281 -3.34375 1.492188 -3.210938 1.328125 -2.953125 C 1.160156 -2.703125 1.078125 -2.320312 1.078125 -1.8125 C 1.078125 -1.3125 1.160156 -0.929688 1.328125 -0.671875 C 1.492188 -0.421875 1.738281 -0.296875 2.0625 -0.296875 C 2.382812 -0.296875 2.628906 -0.410156 2.796875 -0.640625 C 2.960938 -0.867188 3.046875 -1.203125 3.046875 -1.640625 Z M 3.046875 -1.640625 "/>
</g>
<g id="glyph-1-0">
<path d="M -4.734375 -1.21875 L -0.828125 -2.734375 L -4.734375 -4.234375 L -4.734375 -3.65625 L -5.109375 -3.65625 L -5.109375 -5.15625 L -4.734375 -5.15625 L -4.734375 -4.65625 L 0 -2.84375 L 0 -2.25 L -4.734375 -0.4375 L -4.734375 0.0625 L -5.109375 0.0625 L -5.109375 -1.796875 L -4.734375 -1.796875 Z M -4.734375 -1.21875 "/>
</g>
<g id="glyph-1-1">
<path d="M -1.140625 -2.78125 L -1.90625 -2.78125 L -1.90625 -1.96875 C -1.90625 -1.65625 -1.835938 -1.421875 -1.703125 -1.265625 C -1.566406 -1.117188 -1.363281 -1.046875 -1.09375 -1.046875 C -0.84375 -1.046875 -0.640625 -1.125 -0.484375 -1.28125 C -0.335938 -1.4375 -0.265625 -1.644531 -0.265625 -1.90625 C -0.265625 -2.164062 -0.34375 -2.375 -0.5 -2.53125 C -0.664062 -2.695312 -0.878906 -2.78125 -1.140625 -2.78125 Z M -2.265625 -3.421875 L -0.359375 -3.421875 L -0.359375 -3.96875 L 0 -3.96875 L 0 -2.78125 L -0.390625 -2.78125 C -0.222656 -2.644531 -0.0976562 -2.484375 -0.015625 -2.296875 C 0.0546875 -2.117188 0.09375 -1.910156 0.09375 -1.671875 C 0.09375 -1.265625 -0.0078125 -0.941406 -0.21875 -0.703125 C -0.4375 -0.460938 -0.726562 -0.34375 -1.09375 -0.34375 C -1.46875 -0.34375 -1.757812 -0.476562 -1.96875 -0.75 C -2.175781 -1.019531 -2.28125 -1.40625 -2.28125 -1.90625 L -2.28125 -2.78125 L -2.53125 -2.78125 C -2.800781 -2.78125 -3.007812 -2.695312 -3.15625 -2.53125 C -3.3125 -2.363281 -3.390625 -2.128906 -3.390625 -1.828125 C -3.390625 -1.578125 -3.332031 -1.378906 -3.21875 -1.234375 C -3.101562 -1.085938 -2.9375 -0.992188 -2.71875 -0.953125 L -2.71875 -0.625 L -3.453125 -0.625 C -3.546875 -0.84375 -3.613281 -1.054688 -3.65625 -1.265625 C -3.707031 -1.472656 -3.734375 -1.675781 -3.734375 -1.875 C -3.734375 -2.375 -3.609375 -2.753906 -3.359375 -3.015625 C -3.109375 -3.285156 -2.742188 -3.421875 -2.265625 -3.421875 Z M -2.265625 -3.421875 "/>
</g>
<g id="glyph-1-2">
<path d="M -0.359375 -1.4375 L -0.359375 -2.03125 L 0 -2.03125 L 0 -0.203125 L -0.359375 -0.203125 L -0.359375 -0.8125 L -4.953125 -0.8125 L -4.953125 -0.203125 L -5.3125 -0.203125 L -5.3125 -1.4375 Z M -0.359375 -1.4375 "/>
</g>
<g id="glyph-1-3">
<path d="M -3.640625 -2.484375 L -3.640625 -3.65625 L -0.359375 -3.65625 L -0.359375 -4.25 L 0 -4.25 L 0 -3.03125 L -0.640625 -3.03125 C -0.398438 -2.90625 -0.21875 -2.75 -0.09375 -2.5625 C 0.03125 -2.382812 0.09375 -2.175781 0.09375 -1.9375 C 0.09375 -1.53125 -0.0195312 -1.226562 -0.25 -1.03125 C -0.476562 -0.84375 -0.835938 -0.75 -1.328125 -0.75 L -3.265625 -0.75 L -3.265625 -0.1875 L -3.640625 -0.1875 L -3.640625 -1.390625 L -1.515625 -1.390625 C -1.078125 -1.390625 -0.773438 -1.441406 -0.609375 -1.546875 C -0.441406 -1.660156 -0.359375 -1.851562 -0.359375 -2.125 C -0.359375 -2.414062 -0.460938 -2.640625 -0.671875 -2.796875 C -0.890625 -2.953125 -1.203125 -3.03125 -1.609375 -3.03125 L -3.265625 -3.03125 L -3.265625 -2.484375 Z M -3.640625 -2.484375 "/>
</g>
<g id="glyph-1-4">
<path d="M -1.75 -3.796875 L -1.75 -1.078125 L -1.71875 -1.078125 C -1.226562 -1.078125 -0.859375 -1.171875 -0.609375 -1.359375 C -0.359375 -1.546875 -0.234375 -1.816406 -0.234375 -2.171875 C -0.234375 -2.453125 -0.304688 -2.679688 -0.453125 -2.859375 C -0.597656 -3.035156 -0.8125 -3.160156 -1.09375 -3.234375 L -1.09375 -3.734375 C -0.695312 -3.628906 -0.398438 -3.441406 -0.203125 -3.171875 C -0.00390625 -2.898438 0.09375 -2.546875 0.09375 -2.109375 C 0.09375 -1.578125 -0.078125 -1.148438 -0.421875 -0.828125 C -0.773438 -0.503906 -1.238281 -0.34375 -1.8125 -0.34375 C -2.394531 -0.34375 -2.859375 -0.5 -3.203125 -0.8125 C -3.554688 -1.132812 -3.734375 -1.554688 -3.734375 -2.078125 C -3.734375 -2.617188 -3.5625 -3.035156 -3.21875 -3.328125 C -2.882812 -3.628906 -2.394531 -3.785156 -1.75 -3.796875 Z M -2.109375 -3.046875 C -2.535156 -3.035156 -2.851562 -2.945312 -3.0625 -2.78125 C -3.28125 -2.613281 -3.390625 -2.378906 -3.390625 -2.078125 C -3.390625 -1.785156 -3.28125 -1.554688 -3.0625 -1.390625 C -2.851562 -1.222656 -2.535156 -1.117188 -2.109375 -1.078125 Z M -2.109375 -3.046875 "/>
</g>
<g id="glyph-2-0">
<path d="M 2.078125 -0.4375 L 3.296875 -0.4375 C 3.796875 -0.4375 4.15625 -0.539062 4.375 -0.75 C 4.601562 -0.96875 4.71875 -1.304688 4.71875 -1.765625 C 4.71875 -2.234375 4.601562 -2.570312 4.375 -2.78125 C 4.15625 -3 3.796875 -3.109375 3.296875 -3.109375 L 2.078125 -3.109375 Z M 2.078125 -3.53125 L 3.125 -3.53125 C 3.570312 -3.53125 3.894531 -3.617188 4.09375 -3.796875 C 4.300781 -3.972656 4.40625 -4.242188 4.40625 -4.609375 C 4.40625 -4.984375 4.300781 -5.253906 4.09375 -5.421875 C 3.894531 -5.597656 3.570312 -5.6875 3.125 -5.6875 L 2.078125 -5.6875 Z M 0.46875 0 L 0.46875 -0.4375 L 1.25 -0.4375 L 1.25 -5.6875 L 0.46875 -5.6875 L 0.46875 -6.125 L 3.484375 -6.125 C 4.109375 -6.125 4.578125 -6 4.890625 -5.75 C 5.203125 -5.5 5.359375 -5.117188 5.359375 -4.609375 C 5.359375 -4.242188 5.25 -3.953125 5.03125 -3.734375 C 4.8125 -3.523438 4.492188 -3.394531 4.078125 -3.34375 C 4.597656 -3.28125 4.992188 -3.113281 5.265625 -2.84375 C 5.535156 -2.582031 5.671875 -2.222656 5.671875 -1.765625 C 5.671875 -1.160156 5.476562 -0.710938 5.09375 -0.421875 C 4.707031 -0.140625 4.109375 0 3.296875 0 Z M 0.46875 0 "/>
</g>
<g id="glyph-2-1">
<path d="M 3.34375 -1.375 L 3.34375 -2.296875 L 2.375 -2.296875 C 2 -2.296875 1.71875 -2.210938 1.53125 -2.046875 C 1.351562 -1.890625 1.265625 -1.644531 1.265625 -1.3125 C 1.265625 -1.007812 1.351562 -0.765625 1.53125 -0.578125 C 1.71875 -0.398438 1.972656 -0.3125 2.296875 -0.3125 C 2.609375 -0.3125 2.859375 -0.410156 3.046875 -0.609375 C 3.242188 -0.804688 3.34375 -1.0625 3.34375 -1.375 Z M 4.09375 -2.71875 L 4.09375 -0.4375 L 4.78125 -0.4375 L 4.78125 0 L 3.34375 0 L 3.34375 -0.46875 C 3.175781 -0.269531 2.984375 -0.117188 2.765625 -0.015625 C 2.546875 0.078125 2.289062 0.125 2 0.125 C 1.507812 0.125 1.125 -0.00390625 0.84375 -0.265625 C 0.5625 -0.523438 0.421875 -0.875 0.421875 -1.3125 C 0.421875 -1.757812 0.582031 -2.109375 0.90625 -2.359375 C 1.226562 -2.609375 1.6875 -2.734375 2.28125 -2.734375 L 3.34375 -2.734375 L 3.34375 -3.03125 C 3.34375 -3.363281 3.238281 -3.617188 3.03125 -3.796875 C 2.832031 -3.984375 2.554688 -4.078125 2.203125 -4.078125 C 1.898438 -4.078125 1.65625 -4.007812 1.46875 -3.875 C 1.289062 -3.738281 1.179688 -3.535156 1.140625 -3.265625 L 0.75 -3.265625 L 0.75 -4.140625 C 1.019531 -4.253906 1.273438 -4.335938 1.515625 -4.390625 C 1.765625 -4.453125 2.007812 -4.484375 2.25 -4.484375 C 2.851562 -4.484375 3.3125 -4.332031 3.625 -4.03125 C 3.9375 -3.726562 4.09375 -3.289062 4.09375 -2.71875 Z M 4.09375 -2.71875 "/>
</g>
<g id="glyph-2-2">
<path d="M 4.015625 -4.375 L 4.015625 -3.28125 L 3.578125 -3.28125 C 3.566406 -3.5 3.507812 -3.660156 3.40625 -3.765625 C 3.300781 -3.867188 3.144531 -3.921875 2.9375 -3.921875 C 2.5625 -3.921875 2.273438 -3.789062 2.078125 -3.53125 C 1.878906 -3.28125 1.78125 -2.914062 1.78125 -2.4375 L 1.78125 -0.4375 L 2.65625 -0.4375 L 2.65625 0 L 0.34375 0 L 0.34375 -0.4375 L 1.03125 -0.4375 L 1.03125 -3.9375 L 0.296875 -3.9375 L 0.296875 -4.359375 L 1.78125 -4.359375 L 1.78125 -3.59375 C 1.925781 -3.894531 2.113281 -4.117188 2.34375 -4.265625 C 2.582031 -4.410156 2.867188 -4.484375 3.203125 -4.484375 C 3.328125 -4.484375 3.457031 -4.472656 3.59375 -4.453125 C 3.726562 -4.429688 3.867188 -4.40625 4.015625 -4.375 Z M 4.015625 -4.375 "/>
</g>
<g id="glyph-2-3">
</g>
<g id="glyph-2-4">
<path d="M 1.46875 -5.6875 L 3.28125 -0.984375 L 5.078125 -5.6875 L 4.390625 -5.6875 L 4.390625 -6.125 L 6.1875 -6.125 L 6.1875 -5.6875 L 5.59375 -5.6875 L 3.40625 0 L 2.703125 0 L 0.53125 -5.6875 L -0.078125 -5.6875 L -0.078125 -6.125 L 2.15625 -6.125 L 2.15625 -5.6875 Z M 1.46875 -5.6875 "/>
</g>
<g id="glyph-2-5">
<path d="M 1.71875 -0.4375 L 2.4375 -0.4375 L 2.4375 0 L 0.234375 0 L 0.234375 -0.4375 L 0.96875 -0.4375 L 0.96875 -5.953125 L 0.234375 -5.953125 L 0.234375 -6.390625 L 1.71875 -6.390625 Z M 1.71875 -0.4375 "/>
</g>
<g id="glyph-2-6">
<path d="M 2.96875 -4.359375 L 4.390625 -4.359375 L 4.390625 -0.4375 L 5.109375 -0.4375 L 5.109375 0 L 3.625 0 L 3.625 -0.765625 C 3.488281 -0.484375 3.3125 -0.265625 3.09375 -0.109375 C 2.875 0.046875 2.613281 0.125 2.3125 0.125 C 1.832031 0.125 1.476562 -0.0078125 1.25 -0.28125 C 1.019531 -0.5625 0.90625 -1 0.90625 -1.59375 L 0.90625 -3.921875 L 0.21875 -3.921875 L 0.21875 -4.359375 L 1.671875 -4.359375 L 1.671875 -1.828125 C 1.671875 -1.296875 1.734375 -0.929688 1.859375 -0.734375 C 1.992188 -0.535156 2.226562 -0.4375 2.5625 -0.4375 C 2.90625 -0.4375 3.164062 -0.5625 3.34375 -0.8125 C 3.53125 -1.070312 3.625 -1.445312 3.625 -1.9375 L 3.625 -3.921875 L 2.96875 -3.921875 Z M 2.96875 -4.359375 "/>
</g>
<g id="glyph-2-7">
<path d="M 4.5625 -2.109375 L 1.296875 -2.109375 L 1.296875 -2.0625 C 1.296875 -1.476562 1.40625 -1.035156 1.625 -0.734375 C 1.851562 -0.429688 2.179688 -0.28125 2.609375 -0.28125 C 2.941406 -0.28125 3.210938 -0.367188 3.421875 -0.546875 C 3.640625 -0.722656 3.789062 -0.984375 3.875 -1.328125 L 4.484375 -1.328125 C 4.359375 -0.847656 4.132812 -0.484375 3.8125 -0.234375 C 3.488281 0.00390625 3.0625 0.125 2.53125 0.125 C 1.894531 0.125 1.382812 -0.0820312 1 -0.5 C 0.613281 -0.925781 0.421875 -1.488281 0.421875 -2.1875 C 0.421875 -2.875 0.609375 -3.425781 0.984375 -3.84375 C 1.367188 -4.269531 1.867188 -4.484375 2.484375 -4.484375 C 3.148438 -4.484375 3.65625 -4.28125 4 -3.875 C 4.351562 -3.46875 4.539062 -2.878906 4.5625 -2.109375 Z M 3.671875 -2.53125 C 3.648438 -3.039062 3.539062 -3.425781 3.34375 -3.6875 C 3.144531 -3.945312 2.859375 -4.078125 2.484375 -4.078125 C 2.140625 -4.078125 1.863281 -3.945312 1.65625 -3.6875 C 1.457031 -3.425781 1.335938 -3.039062 1.296875 -2.53125 Z M 3.671875 -2.53125 "/>
</g>
<g id="glyph-2-8">
<path d="M 0.46875 -0.234375 L 0.46875 -1.265625 L 0.90625 -1.265625 C 0.914062 -0.929688 1.015625 -0.679688 1.203125 -0.515625 C 1.398438 -0.359375 1.6875 -0.28125 2.0625 -0.28125 C 2.40625 -0.28125 2.664062 -0.34375 2.84375 -0.46875 C 3.019531 -0.601562 3.109375 -0.789062 3.109375 -1.03125 C 3.109375 -1.226562 3.039062 -1.382812 2.90625 -1.5 C 2.78125 -1.613281 2.507812 -1.738281 2.09375 -1.875 L 1.546875 -2.0625 C 1.171875 -2.175781 0.898438 -2.320312 0.734375 -2.5 C 0.566406 -2.6875 0.484375 -2.921875 0.484375 -3.203125 C 0.484375 -3.597656 0.628906 -3.910156 0.921875 -4.140625 C 1.210938 -4.367188 1.617188 -4.484375 2.140625 -4.484375 C 2.367188 -4.484375 2.609375 -4.453125 2.859375 -4.390625 C 3.117188 -4.328125 3.382812 -4.238281 3.65625 -4.125 L 3.65625 -3.171875 L 3.21875 -3.171875 C 3.207031 -3.453125 3.109375 -3.671875 2.921875 -3.828125 C 2.734375 -3.992188 2.476562 -4.078125 2.15625 -4.078125 C 1.84375 -4.078125 1.601562 -4.019531 1.4375 -3.90625 C 1.269531 -3.789062 1.1875 -3.625 1.1875 -3.40625 C 1.1875 -3.21875 1.25 -3.066406 1.375 -2.953125 C 1.5 -2.847656 1.75 -2.738281 2.125 -2.625 L 2.71875 -2.4375 C 3.132812 -2.3125 3.429688 -2.148438 3.609375 -1.953125 C 3.796875 -1.765625 3.890625 -1.515625 3.890625 -1.203125 C 3.890625 -0.796875 3.726562 -0.472656 3.40625 -0.234375 C 3.09375 0.00390625 2.660156 0.125 2.109375 0.125 C 1.816406 0.125 1.535156 0.09375 1.265625 0.03125 C 1.003906 -0.03125 0.738281 -0.117188 0.46875 -0.234375 Z M 0.46875 -0.234375 "/>
</g>
</g>
</defs>
<path fill="none" stroke-width="0.2" stroke-linecap="butt" stroke-linejoin="miter" stroke="rgb(90%, 90%, 90%)" stroke-opacity="1" stroke-miterlimit="10" d="M 47.53125 14.300781 L 47.53125 148.777344 "/>
<path fill="none" stroke-width="0.2" stroke-linecap="butt" stroke-linejoin="miter" stroke="rgb(90%, 90%, 90%)" stroke-opacity="1" stroke-miterlimit="10" d="M 70.835938 14.300781 L 70.835938 148.777344 "/>
<path fill="none" stroke-width="0.2" stroke-linecap="butt" stroke-linejoin="miter" stroke="rgb(90%, 90%, 90%)" stroke-opacity="1" stroke-miterlimit="10" d="M 94.144531 14.300781 L 94.144531 148.777344 "/>
<path fill="none" stroke-width="0.2" stroke-linecap="butt" stroke-linejoin="miter" stroke="rgb(90%, 90%, 90%)" stroke-opacity="1" stroke-miterlimit="10" d="M 117.453125 14.300781 L 117.453125 148.777344 "/>
<path fill="none" stroke-width="0.2" stroke-linecap="butt" stroke-linejoin="miter" stroke="rgb(90%, 90%, 90%)" stroke-opacity="1" stroke-miterlimit="10" d="M 140.757812 14.300781 L 140.757812 148.777344 "/>
<path fill="none" stroke-width="0.2" stroke-linecap="butt" stroke-linejoin="miter" stroke="rgb(90%, 90%, 90%)" stroke-opacity="1" stroke-miterlimit="10" d="M 164.066406 14.300781 L 164.066406 148.777344 "/>
<path fill="none" stroke-width="0.2" stroke-linecap="butt" stroke-linejoin="miter" stroke="rgb(90%, 90%, 90%)" stroke-opacity="1" stroke-miterlimit="10" d="M 187.375 14.300781 L 187.375 148.777344 "/>
<path fill="none" stroke-width="0.2" stroke-linecap="butt" stroke-linejoin="miter" stroke="rgb(90%, 90%, 90%)" stroke-opacity="1" stroke-miterlimit="10" d="M 210.679688 14.300781 L 210.679688 148.777344 "/>
<path fill="none" stroke-width="0.2" stroke-linecap="butt" stroke-linejoin="miter" stroke="rgb(90%, 90%, 90%)" stroke-opacity="1" stroke-miterlimit="10" d="M 233.988281 14.300781 L 233.988281 148.777344 "/>
<path fill="none" stroke-width="0.2" stroke-linecap="butt" stroke-linejoin="miter" stroke="rgb(90%, 90%, 90%)" stroke-opacity="1" stroke-miterlimit="10" d="M 28.101562 144.972656 L 253.417969 144.972656 "/>
<path fill="none" stroke-width="0.2" stroke-linecap="butt" stroke-linejoin="miter" stroke="rgb(90%, 90%, 90%)" stroke-opacity="1" stroke-miterlimit="10" d="M 28.101562 116.78125 L 253.417969 116.78125 "/>
<path fill="none" stroke-width="0.2" stroke-linecap="butt" stroke-linejoin="miter" stroke="rgb(90%, 90%, 90%)" stroke-opacity="1" stroke-miterlimit="10" d="M 28.101562 88.585938 L 253.417969 88.585938 "/>
<path fill="none" stroke-width="0.2" stroke-linecap="butt" stroke-linejoin="miter" stroke="rgb(90%, 90%, 90%)" stroke-opacity="1" stroke-miterlimit="10" d="M 28.101562 60.394531 L 253.417969 60.394531 "/>
<path fill="none" stroke-width="0.2" stroke-linecap="butt" stroke-linejoin="miter" stroke="rgb(90%, 90%, 90%)" stroke-opacity="1" stroke-miterlimit="10" d="M 28.101562 32.203125 L 253.417969 32.203125 "/>
<path fill="none" stroke-width="0.5" stroke-linecap="butt" stroke-linejoin="miter" stroke="rgb(0%, 0%, 0%)" stroke-opacity="1" stroke-miterlimit="10" d="M 28.101562 14.300781 L 253.417969 14.300781 L 253.417969 148.777344 L 28.101562 148.777344 Z M 28.101562 14.300781 "/>
<path fill="none" stroke-width="0.35" stroke-linecap="butt" stroke-linejoin="miter" stroke="rgb(0%, 0%, 0%)" stroke-opacity="1" stroke-miterlimit="10" d="M 47.53125 148.777344 L 47.53125 145.976562 "/>
<g fill="rgb(0%, 0%, 0%)" fill-opacity="1">
<use xlink:href="#glyph-0-0" x="41.964844" y="157.253906"/>
</g>
<g fill="rgb(0%, 0%, 0%)" fill-opacity="1">
<use xlink:href="#glyph-0-1" x="46.417969" y="157.253906"/>
</g>
<g fill="rgb(0%, 0%, 0%)" fill-opacity="1">
<use xlink:href="#glyph-0-2" x="48.640625" y="157.253906"/>
</g>
<path fill="none" stroke-width="0.35" stroke-linecap="butt" stroke-linejoin="miter" stroke="rgb(0%, 0%, 0%)" stroke-opacity="1" stroke-miterlimit="10" d="M 70.835938 148.777344 L 70.835938 145.976562 "/>
<g fill="rgb(0%, 0%, 0%)" fill-opacity="1">
<use xlink:href="#glyph-0-0" x="65.269531" y="157.253906"/>
</g>
<g fill="rgb(0%, 0%, 0%)" fill-opacity="1">
<use xlink:href="#glyph-0-1" x="69.722656" y="157.253906"/>
</g>
<g fill="rgb(0%, 0%, 0%)" fill-opacity="1">
<use xlink:href="#glyph-0-3" x="71.949219" y="157.253906"/>
</g>
<path fill="none" stroke-width="0.35" stroke-linecap="butt" stroke-linejoin="miter" stroke="rgb(0%, 0%, 0%)" stroke-opacity="1" stroke-miterlimit="10" d="M 94.144531 148.777344 L 94.144531 145.976562 "/>
<g fill="rgb(0%, 0%, 0%)" fill-opacity="1">
<use xlink:href="#glyph-0-4" x="88.578125" y="157.253906"/>
</g>
<g fill="rgb(0%, 0%, 0%)" fill-opacity="1">
<use xlink:href="#glyph-0-1" x="93.03125" y="157.253906"/>
</g>
<g fill="rgb(0%, 0%, 0%)" fill-opacity="1">
<use xlink:href="#glyph-0-2" x="95.257812" y="157.253906"/>
</g>
<path fill="none" stroke-width="0.35" stroke-linecap="butt" stroke-linejoin="miter" stroke="rgb(0%, 0%, 0%)" stroke-opacity="1" stroke-miterlimit="10" d="M 117.453125 148.777344 L 117.453125 145.976562 "/>
<g fill="rgb(0%, 0%, 0%)" fill-opacity="1">
<use xlink:href="#glyph-0-4" x="111.886719" y="157.253906"/>
</g>
<g fill="rgb(0%, 0%, 0%)" fill-opacity="1">
<use xlink:href="#glyph-0-1" x="116.339844" y="157.253906"/>
</g>
<g fill="rgb(0%, 0%, 0%)" fill-opacity="1">
<use xlink:href="#glyph-0-3" x="118.5625" y="157.253906"/>
</g>
<path fill="none" stroke-width="0.35" stroke-linecap="butt" stroke-linejoin="miter" stroke="rgb(0%, 0%, 0%)" stroke-opacity="1" stroke-miterlimit="10" d="M 140.757812 148.777344 L 140.757812 145.976562 "/>
<g fill="rgb(0%, 0%, 0%)" fill-opacity="1">
<use xlink:href="#glyph-0-5" x="135.191406" y="157.253906"/>
</g>
<g fill="rgb(0%, 0%, 0%)" fill-opacity="1">
<use xlink:href="#glyph-0-1" x="139.648438" y="157.253906"/>
</g>
<g fill="rgb(0%, 0%, 0%)" fill-opacity="1">
<use xlink:href="#glyph-0-2" x="141.871094" y="157.253906"/>
</g>
<path fill="none" stroke-width="0.35" stroke-linecap="butt" stroke-linejoin="miter" stroke="rgb(0%, 0%, 0%)" stroke-opacity="1" stroke-miterlimit="10" d="M 164.066406 148.777344 L 164.066406 145.976562 "/>
<g fill="rgb(0%, 0%, 0%)" fill-opacity="1">
<use xlink:href="#glyph-0-5" x="158.5" y="157.253906"/>
</g>
<g fill="rgb(0%, 0%, 0%)" fill-opacity="1">
<use xlink:href="#glyph-0-1" x="162.953125" y="157.253906"/>
</g>
<g fill="rgb(0%, 0%, 0%)" fill-opacity="1">
<use xlink:href="#glyph-0-3" x="165.179688" y="157.253906"/>
</g>
<path fill="none" stroke-width="0.35" stroke-linecap="butt" stroke-linejoin="miter" stroke="rgb(0%, 0%, 0%)" stroke-opacity="1" stroke-miterlimit="10" d="M 187.375 148.777344 L 187.375 145.976562 "/>
<g fill="rgb(0%, 0%, 0%)" fill-opacity="1">
<use xlink:href="#glyph-0-6" x="181.808594" y="157.253906"/>
</g>
<g fill="rgb(0%, 0%, 0%)" fill-opacity="1">
<use xlink:href="#glyph-0-1" x="186.261719" y="157.253906"/>
</g>
<g fill="rgb(0%, 0%, 0%)" fill-opacity="1">
<use xlink:href="#glyph-0-2" x="188.484375" y="157.253906"/>
</g>
<path fill="none" stroke-width="0.35" stroke-linecap="butt" stroke-linejoin="miter" stroke="rgb(0%, 0%, 0%)" stroke-opacity="1" stroke-miterlimit="10" d="M 210.679688 148.777344 L 210.679688 145.976562 "/>
<g fill="rgb(0%, 0%, 0%)" fill-opacity="1">
<use xlink:href="#glyph-0-6" x="205.113281" y="157.253906"/>
</g>
<g fill="rgb(0%, 0%, 0%)" fill-opacity="1">
<use xlink:href="#glyph-0-1" x="209.570312" y="157.253906"/>
</g>
<g fill="rgb(0%, 0%, 0%)" fill-opacity="1">
<use xlink:href="#glyph-0-3" x="211.792969" y="157.253906"/>
</g>
<path fill="none" stroke-width="0.35" stroke-linecap="butt" stroke-linejoin="miter" stroke="rgb(0%, 0%, 0%)" stroke-opacity="1" stroke-miterlimit="10" d="M 233.988281 148.777344 L 233.988281 145.976562 "/>
<g fill="rgb(0%, 0%, 0%)" fill-opacity="1">
<use xlink:href="#glyph-0-3" x="228.421875" y="157.253906"/>
</g>
<g fill="rgb(0%, 0%, 0%)" fill-opacity="1">
<use xlink:href="#glyph-0-1" x="232.875" y="157.253906"/>
</g>
<g fill="rgb(0%, 0%, 0%)" fill-opacity="1">
<use xlink:href="#glyph-0-2" x="235.101562" y="157.253906"/>
</g>
<g fill="rgb(0%, 0%, 0%)" fill-opacity="1">
<use xlink:href="#glyph-0-7" x="124.507812" y="166.699219"/>
</g>
<g fill="rgb(0%, 0%, 0%)" fill-opacity="1">
<use xlink:href="#glyph-0-8" x="129.863281" y="166.699219"/>
</g>
<g fill="rgb(0%, 0%, 0%)" fill-opacity="1">
<use xlink:href="#glyph-0-9" x="134.039062" y="166.699219"/>
</g>
<g fill="rgb(0%, 0%, 0%)" fill-opacity="1">
<use xlink:href="#glyph-0-10" x="136.851562" y="166.699219"/>
</g>
<g fill="rgb(0%, 0%, 0%)" fill-opacity="1">
<use xlink:href="#glyph-0-11" x="140.992188" y="166.699219"/>
</g>
<g fill="rgb(0%, 0%, 0%)" fill-opacity="1">
<use xlink:href="#glyph-0-12" x="145.472656" y="166.699219"/>
</g>
<g fill="rgb(0%, 0%, 0%)" fill-opacity="1">
<use xlink:href="#glyph-0-13" x="149.6875" y="166.699219"/>
</g>
<g fill="rgb(0%, 0%, 0%)" fill-opacity="1">
<use xlink:href="#glyph-0-14" x="153.054688" y="166.699219"/>
</g>
<path fill="none" stroke-width="0.35" stroke-linecap="butt" stroke-linejoin="miter" stroke="rgb(0%, 0%, 0%)" stroke-opacity="1" stroke-miterlimit="10" d="M 28.101562 144.972656 L 30.902344 144.972656 "/>
<g fill="rgb(0%, 0%, 0%)" fill-opacity="1">
<use xlink:href="#glyph-0-2" x="14.167969" y="147.632812"/>
</g>
<g fill="rgb(0%, 0%, 0%)" fill-opacity="1">
<use xlink:href="#glyph-0-1" x="18.621094" y="147.632812"/>
</g>
<g fill="rgb(0%, 0%, 0%)" fill-opacity="1">
<use xlink:href="#glyph-0-2" x="20.847656" y="147.632812"/>
</g>
<path fill="none" stroke-width="0.35" stroke-linecap="butt" stroke-linejoin="miter" stroke="rgb(0%, 0%, 0%)" stroke-opacity="1" stroke-miterlimit="10" d="M 28.101562 116.78125 L 30.902344 116.78125 "/>
<g fill="rgb(0%, 0%, 0%)" fill-opacity="1">
<use xlink:href="#glyph-0-2" x="14.167969" y="119.441406"/>
</g>
<g fill="rgb(0%, 0%, 0%)" fill-opacity="1">
<use xlink:href="#glyph-0-1" x="18.621094" y="119.441406"/>
</g>
<g fill="rgb(0%, 0%, 0%)" fill-opacity="1">
<use xlink:href="#glyph-0-6" x="20.847656" y="119.441406"/>
</g>
<path fill="none" stroke-width="0.35" stroke-linecap="butt" stroke-linejoin="miter" stroke="rgb(0%, 0%, 0%)" stroke-opacity="1" stroke-miterlimit="10" d="M 28.101562 88.585938 L 30.902344 88.585938 "/>
<g fill="rgb(0%, 0%, 0%)" fill-opacity="1">
<use xlink:href="#glyph-0-2" x="14.167969" y="91.246094"/>
</g>
<g fill="rgb(0%, 0%, 0%)" fill-opacity="1">
<use xlink:href="#glyph-0-1" x="18.621094" y="91.246094"/>
</g>
<g fill="rgb(0%, 0%, 0%)" fill-opacity="1">
<use xlink:href="#glyph-0-15" x="20.847656" y="91.246094"/>
</g>
<path fill="none" stroke-width="0.35" stroke-linecap="butt" stroke-linejoin="miter" stroke="rgb(0%, 0%, 0%)" stroke-opacity="1" stroke-miterlimit="10" d="M 28.101562 60.394531 L 30.902344 60.394531 "/>
<g fill="rgb(0%, 0%, 0%)" fill-opacity="1">
<use xlink:href="#glyph-0-0" x="14.167969" y="63.054688"/>
</g>
<g fill="rgb(0%, 0%, 0%)" fill-opacity="1">
<use xlink:href="#glyph-0-1" x="18.621094" y="63.054688"/>
</g>
<g fill="rgb(0%, 0%, 0%)" fill-opacity="1">
<use xlink:href="#glyph-0-4" x="20.847656" y="63.054688"/>
</g>
<path fill="none" stroke-width="0.35" stroke-linecap="butt" stroke-linejoin="miter" stroke="rgb(0%, 0%, 0%)" stroke-opacity="1" stroke-miterlimit="10" d="M 28.101562 32.203125 L 30.902344 32.203125 "/>
<g fill="rgb(0%, 0%, 0%)" fill-opacity="1">
<use xlink:href="#glyph-0-0" x="14.167969" y="34.863281"/>
</g>
<g fill="rgb(0%, 0%, 0%)" fill-opacity="1">
<use xlink:href="#glyph-0-1" x="18.621094" y="34.863281"/>
</g>
<g fill="rgb(0%, 0%, 0%)" fill-opacity="1">
<use xlink:href="#glyph-0-16" x="20.847656" y="34.863281"/>
</g>
<g fill="rgb(0%, 0%, 0%)" fill-opacity="1">
<use xlink:href="#glyph-1-0" x="10.238281" y="91.683594"/>
</g>
<g fill="rgb(0%, 0%, 0%)" fill-opacity="1">
<use xlink:href="#glyph-1-1" x="10.238281" y="86.457031"/>
</g>
<g fill="rgb(0%, 0%, 0%)" fill-opacity="1">
<use xlink:href="#glyph-1-2" x="10.238281" y="82.285156"/>
</g>
<g fill="rgb(0%, 0%, 0%)" fill-opacity="1">
<use xlink:href="#glyph-1-3" x="10.238281" y="80.046875"/>
</g>
<g fill="rgb(0%, 0%, 0%)" fill-opacity="1">
<use xlink:href="#glyph-1-4" x="10.238281" y="75.539062"/>
</g>
<path fill-rule="nonzero" fill="rgb(27.45098%, 50.980392%, 70.588235%)" fill-opacity="1" stroke-width="0.5" stroke-linecap="butt" stroke-linejoin="round" stroke="rgb(0%, 0%, 0%)" stroke-opacity="1" stroke-miterlimit="10" d="M 34.476562 74.492188 L 60.582031 74.492188 L 60.582031 144.972656 L 34.476562 144.972656 Z M 34.476562 74.492188 "/>
<path fill-rule="nonzero" fill="rgb(27.45098%, 50.980392%, 70.588235%)" fill-opacity="1" stroke-width="0.5" stroke-linecap="butt" stroke-linejoin="round" stroke="rgb(0%, 0%, 0%)" stroke-opacity="1" stroke-miterlimit="10" d="M 81.09375 39.25 L 107.199219 39.25 L 107.199219 144.972656 L 81.09375 144.972656 Z M 81.09375 39.25 "/>
<path fill-rule="nonzero" fill="rgb(27.45098%, 50.980392%, 70.588235%)" fill-opacity="1" stroke-width="0.5" stroke-linecap="butt" stroke-linejoin="round" stroke="rgb(0%, 0%, 0%)" stroke-opacity="1" stroke-miterlimit="10" d="M 127.707031 95.636719 L 153.8125 95.636719 L 153.8125 144.972656 L 127.707031 144.972656 Z M 127.707031 95.636719 "/>
<path fill-rule="nonzero" fill="rgb(27.45098%, 50.980392%, 70.588235%)" fill-opacity="1" stroke-width="0.5" stroke-linecap="butt" stroke-linejoin="round" stroke="rgb(0%, 0%, 0%)" stroke-opacity="1" stroke-miterlimit="10" d="M 174.320312 60.394531 L 200.425781 60.394531 L 200.425781 144.972656 L 174.320312 144.972656 Z M 174.320312 60.394531 "/>
<path fill-rule="nonzero" fill="rgb(27.45098%, 50.980392%, 70.588235%)" fill-opacity="1" stroke-width="0.5" stroke-linecap="butt" stroke-linejoin="round" stroke="rgb(0%, 0%, 0%)" stroke-opacity="1" stroke-miterlimit="10" d="M 220.9375 18.105469 L 247.042969 18.105469 L 247.042969 144.972656 L 220.9375 144.972656 Z M 220.9375 18.105469 "/>
<g fill="rgb(0%, 0%, 0%)" fill-opacity="1">
<use xlink:href="#glyph-2-0" x="117.457031" y="8.585938"/>
</g>
<g fill="rgb(0%, 0%, 0%)" fill-opacity="1">
<use xlink:href="#glyph-2-1" x="123.628906" y="8.585938"/>
</g>
<g fill="rgb(0%, 0%, 0%)" fill-opacity="1">
<use xlink:href="#glyph-2-2" x="128.636719" y="8.585938"/>
</g>
<g fill="rgb(0%, 0%, 0%)" fill-opacity="1">
<use xlink:href="#glyph-2-3" x="132.652344" y="8.585938"/>
</g>
<g fill="rgb(0%, 0%, 0%)" fill-opacity="1">
<use xlink:href="#glyph-2-4" x="135.40625" y="8.585938"/>
</g>
<g fill="rgb(0%, 0%, 0%)" fill-opacity="1">
<use xlink:href="#glyph-2-1" x="141.675781" y="8.585938"/>
</g>
<g fill="rgb(0%, 0%, 0%)" fill-opacity="1">
<use xlink:href="#glyph-2-5" x="146.683594" y="8.585938"/>
</g>
<g fill="rgb(0%, 0%, 0%)" fill-opacity="1">
<use xlink:href="#glyph-2-6" x="149.371094" y="8.585938"/>
</g>
<g fill="rgb(0%, 0%, 0%)" fill-opacity="1">
<use xlink:href="#glyph-2-7" x="154.78125" y="8.585938"/>
</g>
<g fill="rgb(0%, 0%, 0%)" fill-opacity="1">
<use xlink:href="#glyph-2-8" x="159.75" y="8.585938"/>
</g>
<path fill-rule="nonzero" fill="rgb(100%, 100%, 100%)" fill-opacity="1" stroke-width="0.4" stroke-linecap="butt" stroke-linejoin="round" stroke="rgb(0%, 0%, 0%)" stroke-opacity="1" stroke-miterlimit="10" d="M 31.25 20.140625 L 31.25 28.0625 C 31.25 30.75 31.25 30.75 33.941406 30.75 L 90.460938 30.75 C 93.152344 30.75 93.152344 30.75 93.152344 28.0625 L 93.152344 20.140625 C 93.152344 17.449219 93.152344 17.449219 90.460938 17.449219 L 33.941406 17.449219 C 31.25 17.449219 31.25 17.449219 31.25 20.140625 Z M 31.25 20.140625 "/>
<path fill-rule="nonzero" fill="rgb(27.45098%, 50.980392%, 70.588235%)" fill-opacity="1" stroke-width="0.5" stroke-linecap="butt" stroke-linejoin="round" stroke="rgb(0%, 0%, 0%)" stroke-opacity="1" stroke-miterlimit="10" d="M 34.402344 22 L 47.703125 22 L 47.703125 26.199219 L 34.402344 26.199219 Z M 34.402344 22 "/>
<g fill="rgb(0%, 0%, 0%)" fill-opacity="1">
<use xlink:href="#glyph-0-12" x="54" y="26.339844"/>
</g>
<g fill="rgb(0%, 0%, 0%)" fill-opacity="1">
<use xlink:href="#glyph-0-17" x="58.214844" y="26.339844"/>
</g>
<g fill="rgb(0%, 0%, 0%)" fill-opacity="1">
<use xlink:href="#glyph-0-18" x="62.695312" y="26.339844"/>
</g>
<g fill="rgb(0%, 0%, 0%)" fill-opacity="1">
<use xlink:href="#glyph-0-10" x="66.289062" y="26.339844"/>
</g>
<g fill="rgb(0%, 0%, 0%)" fill-opacity="1">
<use xlink:href="#glyph-0-13" x="70.429688" y="26.339844"/>
</g>
<g fill="rgb(0%, 0%, 0%)" fill-opacity="1">
<use xlink:href="#glyph-0-19" x="73.796875" y="26.339844"/>
</g>
<g fill="rgb(0%, 0%, 0%)" fill-opacity="1">
<use xlink:href="#glyph-0-10" x="77.753906" y="26.339844"/>
</g>
<g fill="rgb(0%, 0%, 0%)" fill-opacity="1">
<use xlink:href="#glyph-0-20" x="81.894531" y="26.339844"/>
</g>
</svg>
