<?xml version="1.0" encoding="UTF-8"?>
<svg xmlns="http://www.w3.org/2000/svg" xmlns:xlink="http://www.w3.org/1999/xlink" width="425.19685" height="283.464567" viewBox="0 0 425.19685 283.464567">
<defs>
<g>
<g id="glyph-0-0">
<path d="M 3.171875 -0.34375 C 3.671875 -0.34375 4.046875 -0.613281 4.296875 -1.15625 C 4.546875 -1.707031 4.671875 -2.535156 4.671875 -3.640625 C 4.671875 -4.742188 4.546875 -5.566406 4.296875 -6.109375 C 4.046875 -6.660156 3.671875 -6.9375 3.171875 -6.9375 C 2.679688 -6.9375 2.3125 -6.660156 2.0625 -6.109375 C 1.8125 -5.566406 1.6875 -4.742188 1.6875 -3.640625 C 1.6875 -2.535156 1.8125 -1.707031 2.0625 -1.15625 C 2.3125 -0.613281 2.679688 -0.34375 3.171875 -0.34375 Z M 3.171875 0.140625 C 2.390625 0.140625 1.773438 -0.1875 1.328125 -0.84375 C 0.878906 -1.507812 0.65625 -2.441406 0.65625 -3.640625 C 0.65625 -4.835938 0.878906 -5.765625 1.328125 -6.421875 C 1.773438 -7.085938 2.390625 -7.421875 3.171875 -7.421875 C 3.972656 -7.421875 4.59375 -7.085938 5.03125 -6.421875 C 5.476562 -5.765625 5.703125 -4.835938 5.703125 -3.640625 C 5.703125 -2.441406 5.476562 -1.507812 5.03125 -0.84375 C 4.59375 -0.1875 3.972656 0.140625 3.171875 0.140625 Z M 3.171875 0.140625 "/>
</g>
<g id="glyph-0-1">
<path d="M 1.421875 0 L 1.421875 -0.515625 L 2.6875 -0.515625 L 2.6875 -6.578125 L 1.21875 -5.625 L 1.21875 -6.265625 L 3 -7.421875 L 3.671875 -7.421875 L 3.671875 -0.515625 L 4.9375 -0.515625 L 4.9375 0 Z M 1.421875 0 "/>
</g>
<g id="glyph-0-2">
<path d="M 1.28125 -5.546875 L 0.734375 -5.546875 L 0.734375 -6.84375 C 1.078125 -7.03125 1.425781 -7.171875 1.78125 -7.265625 C 2.132812 -7.367188 2.484375 -7.421875 2.828125 -7.421875 C 3.578125 -7.421875 4.171875 -7.234375 4.609375 -6.859375 C 5.054688 -6.492188 5.28125 -6 5.28125 -5.375 C 5.28125 -4.65625 4.78125 -3.800781 3.78125 -2.8125 C 3.707031 -2.738281 3.648438 -2.679688 3.609375 -2.640625 L 1.765625 -0.796875 L 4.8125 -0.796875 L 4.8125 -1.703125 L 5.375 -1.703125 L 5.375 0 L 0.671875 0 L 0.671875 -0.53125 L 2.890625 -2.734375 C 3.378906 -3.222656 3.726562 -3.671875 3.9375 -4.078125 C 4.144531 -4.492188 4.25 -4.925781 4.25 -5.375 C 4.25 -5.863281 4.117188 -6.242188 3.859375 -6.515625 C 3.609375 -6.796875 3.257812 -6.9375 2.8125 -6.9375 C 2.34375 -6.9375 1.976562 -6.820312 1.71875 -6.59375 C 1.46875 -6.363281 1.320312 -6.015625 1.28125 -5.546875 Z M 1.28125 -5.546875 "/>
</g>
<g id="glyph-0-3">
<path d="M 0.96875 -6.984375 C 1.351562 -7.128906 1.71875 -7.238281 2.0625 -7.3125 C 2.414062 -7.382812 2.742188 -7.421875 3.046875 -7.421875 C 3.765625 -7.421875 4.320312 -7.265625 4.71875 -6.953125 C 5.125 -6.648438 5.328125 -6.222656 5.328125 -5.671875 C 5.328125 -5.234375 5.1875 -4.867188 4.90625 -4.578125 C 4.632812 -4.285156 4.242188 -4.085938 3.734375 -3.984375 C 4.328125 -3.898438 4.789062 -3.679688 5.125 -3.328125 C 5.457031 -2.972656 5.625 -2.519531 5.625 -1.96875 C 5.625 -1.289062 5.394531 -0.769531 4.9375 -0.40625 C 4.476562 -0.0390625 3.816406 0.140625 2.953125 0.140625 C 2.578125 0.140625 2.207031 0.0976562 1.84375 0.015625 C 1.476562 -0.0664062 1.117188 -0.191406 0.765625 -0.359375 L 0.765625 -1.765625 L 1.3125 -1.765625 C 1.34375 -1.296875 1.5 -0.941406 1.78125 -0.703125 C 2.0625 -0.460938 2.460938 -0.34375 2.984375 -0.34375 C 3.472656 -0.34375 3.863281 -0.484375 4.15625 -0.765625 C 4.445312 -1.054688 4.59375 -1.453125 4.59375 -1.953125 C 4.59375 -2.523438 4.441406 -2.957031 4.140625 -3.25 C 3.847656 -3.550781 3.414062 -3.703125 2.84375 -3.703125 L 2.375 -3.703125 L 2.375 -4.203125 L 2.625 -4.203125 C 3.195312 -4.203125 3.625 -4.316406 3.90625 -4.546875 C 4.1875 -4.785156 4.328125 -5.144531 4.328125 -5.625 C 4.328125 -6.050781 4.207031 -6.375 3.96875 -6.59375 C 3.738281 -6.820312 3.40625 -6.9375 2.96875 -6.9375 C 2.53125 -6.9375 2.1875 -6.832031 1.9375 -6.625 C 1.695312 -6.414062 1.554688 -6.109375 1.515625 -5.703125 L 0.96875 -5.703125 Z M 0.96875 -6.984375 "/>
</g>
<g id="glyph-0-4">
<path d="M 3.484375 -2.46875 L 3.484375 -6.34375 L 1 -2.46875 Z M 5.640625 0 L 2.3125 0 L 2.3125 -0.515625 L 3.484375 -0.515625 L 3.484375 -1.953125 L 0.3125 -1.953125 L 0.3125 -2.484375 L 3.5 -7.421875 L 4.46875 -7.421875 L 4.46875 -2.46875 L 5.859375 -2.46875 L 5.859375 -1.953125 L 4.46875 -1.953125 L 4.46875 -0.515625 L 5.640625 -0.515625 Z M 5.640625 0 "/>
</g>
<g id="glyph-0-5">
<path d="M 5.03125 -7.296875 L 5.03125 -6.484375 L 1.6875 -6.484375 L 1.6875 -4.40625 C 1.851562 -4.519531 2.050781 -4.601562 2.28125 -4.65625 C 2.507812 -4.71875 2.765625 -4.75 3.046875 -4.75 C 3.828125 -4.75 4.445312 -4.53125 4.90625 -4.09375 C 5.363281 -3.65625 5.59375 -3.0625 5.59375 -2.3125 C 5.59375 -1.539062 5.359375 -0.9375 4.890625 -0.5 C 4.429688 -0.0703125 3.785156 0.140625 2.953125 0.140625 C 2.617188 0.140625 2.273438 0.0976562 1.921875 0.015625 C 1.578125 -0.0664062 1.21875 -0.191406 0.84375 -0.359375 L 0.84375 -1.765625 L 1.40625 -1.765625 C 1.4375 -1.304688 1.582031 -0.953125 1.84375 -0.703125 C 2.101562 -0.460938 2.472656 -0.34375 2.953125 -0.34375 C 3.472656 -0.34375 3.867188 -0.507812 4.140625 -0.84375 C 4.421875 -1.1875 4.5625 -1.675781 4.5625 -2.3125 C 4.5625 -2.9375 4.421875 -3.414062 4.140625 -3.75 C 3.867188 -4.09375 3.472656 -4.265625 2.953125 -4.265625 C 2.660156 -4.265625 2.398438 -4.210938 2.171875 -4.109375 C 1.953125 -4.003906 1.757812 -3.84375 1.59375 -3.625 L 1.171875 -3.625 L 1.171875 -7.296875 Z M 5.03125 -7.296875 "/>
</g>
<g id="glyph-0-6">
<path d="M 3.265625 -0.34375 C 3.722656 -0.34375 4.078125 -0.507812 4.328125 -0.84375 C 4.578125 -1.1875 4.703125 -1.671875 4.703125 -2.296875 C 4.703125 -2.929688 4.578125 -3.414062 4.328125 -3.75 C 4.078125 -4.09375 3.722656 -4.265625 3.265625 -4.265625 C 2.804688 -4.265625 2.453125 -4.097656 2.203125 -3.765625 C 1.960938 -3.441406 1.84375 -2.972656 1.84375 -2.359375 C 1.84375 -1.710938 1.960938 -1.210938 2.203125 -0.859375 C 2.453125 -0.515625 2.804688 -0.34375 3.265625 -0.34375 Z M 1.6875 -4.015625 C 1.90625 -4.253906 2.15625 -4.429688 2.4375 -4.546875 C 2.71875 -4.671875 3.03125 -4.734375 3.375 -4.734375 C 4.101562 -4.734375 4.675781 -4.515625 5.09375 -4.078125 C 5.519531 -3.648438 5.734375 -3.054688 5.734375 -2.296875 C 5.734375 -1.554688 5.503906 -0.960938 5.046875 -0.515625 C 4.597656 -0.078125 3.992188 0.140625 3.234375 0.140625 C 2.410156 0.140625 1.773438 -0.164062 1.328125 -0.78125 C 0.890625 -1.394531 0.671875 -2.269531 0.671875 -3.40625 C 0.671875 -4.6875 0.929688 -5.675781 1.453125 -6.375 C 1.972656 -7.070312 2.710938 -7.421875 3.671875 -7.421875 C 3.929688 -7.421875 4.203125 -7.394531 4.484375 -7.34375 C 4.765625 -7.300781 5.054688 -7.226562 5.359375 -7.125 L 5.359375 -5.921875 L 4.796875 -5.921875 C 4.753906 -6.253906 4.628906 -6.503906 4.421875 -6.671875 C 4.210938 -6.847656 3.925781 -6.9375 3.5625 -6.9375 C 2.9375 -6.9375 2.46875 -6.695312 2.15625 -6.21875 C 1.84375 -5.738281 1.6875 -5.003906 1.6875 -4.015625 Z M 1.6875 -4.015625 "/>
</g>
<g id="glyph-0-7">
<path d="M 0.4375 -3.0625 L 2.9375 -3.0625 L 2.9375 -2.296875 L 0.4375 -2.296875 Z M 0.4375 -3.0625 "/>
</g>
<g id="glyph-0-8">
<path d="M 0.9375 -0.515625 C 0.9375 -0.691406 1 -0.84375 1.125 -0.96875 C 1.25 -1.09375 1.40625 -1.15625 1.59375 -1.15625 C 1.769531 -1.15625 1.921875 -1.09375 2.046875 -0.96875 C 2.171875 -0.84375 2.234375 -0.691406 2.234375 -0.515625 C 2.234375 -0.328125 2.171875 -0.171875 2.046875 -0.046875 C 1.921875 0.078125 1.769531 0.140625 1.59375 0.140625 C 1.40625 0.140625 1.25 0.078125 1.125 -0.046875 C 1 -0.171875 0.9375 -0.328125 0.9375 -0.515625 Z M 0.9375 -0.515625 "/>
</g>
<g id="glyph-0-9">
<path d="M 0.5625 -0.28125 L 0.5625 -1.5 L 1.078125 -1.5 C 1.085938 -1.113281 1.207031 -0.820312 1.4375 -0.625 C 1.664062 -0.4375 2.007812 -0.34375 2.46875 -0.34375 C 2.863281 -0.34375 3.164062 -0.414062 3.375 -0.5625 C 3.59375 -0.71875 3.703125 -0.941406 3.703125 -1.234375 C 3.703125 -1.460938 3.625 -1.644531 3.46875 -1.78125 C 3.3125 -1.925781 2.984375 -2.078125 2.484375 -2.234375 L 1.84375 -2.453125 C 1.394531 -2.597656 1.070312 -2.773438 0.875 -2.984375 C 0.675781 -3.203125 0.578125 -3.476562 0.578125 -3.8125 C 0.578125 -4.28125 0.75 -4.648438 1.09375 -4.921875 C 1.4375 -5.191406 1.921875 -5.328125 2.546875 -5.328125 C 2.816406 -5.328125 3.101562 -5.289062 3.40625 -5.21875 C 3.707031 -5.15625 4.019531 -5.050781 4.34375 -4.90625 L 4.34375 -3.78125 L 3.828125 -3.78125 C 3.804688 -4.113281 3.6875 -4.375 3.46875 -4.5625 C 3.25 -4.75 2.945312 -4.84375 2.5625 -4.84375 C 2.1875 -4.84375 1.898438 -4.773438 1.703125 -4.640625 C 1.515625 -4.515625 1.421875 -4.316406 1.421875 -4.046875 C 1.421875 -3.828125 1.492188 -3.648438 1.640625 -3.515625 C 1.785156 -3.390625 2.078125 -3.257812 2.515625 -3.125 L 3.234375 -2.90625 C 3.722656 -2.75 4.078125 -2.554688 4.296875 -2.328125 C 4.515625 -2.097656 4.625 -1.800781 4.625 -1.4375 C 4.625 -0.945312 4.429688 -0.5625 4.046875 -0.28125 C 3.671875 0 3.15625 0.140625 2.5 0.140625 C 2.164062 0.140625 1.835938 0.101562 1.515625 0.03125 C 1.203125 -0.0390625 0.882812 -0.144531 0.5625 -0.28125 Z M 0.5625 -0.28125 "/>
</g>
<g id="glyph-0-10">
<path d="M 0.96875 -6.796875 C 0.96875 -6.953125 1.019531 -7.082031 1.125 -7.1875 C 1.238281 -7.300781 1.375 -7.359375 1.53125 -7.359375 C 1.675781 -7.359375 1.800781 -7.300781 1.90625 -7.1875 C 2.019531 -7.082031 2.078125 -6.953125 2.078125 -6.796875 C 2.078125 -6.648438 2.023438 -6.519531 1.921875 -6.40625 C 1.816406 -6.300781 1.6875 -6.25 1.53125 -6.25 C 1.375 -6.25 1.238281 -6.300781 1.125 -6.40625 C 1.019531 -6.519531 0.96875 -6.648438 0.96875 -6.796875 Z M 2.125 -0.515625 L 2.96875 -0.515625 L 2.96875 0 L 0.359375 0 L 0.359375 -0.515625 L 1.21875 -0.515625 L 1.21875 -4.671875 L 0.359375 -4.671875 L 0.359375 -5.1875 L 2.125 -5.1875 Z M 2.125 -0.515625 "/>
</g>
<g id="glyph-0-11">
<path d="M 0.40625 0 L 0.40625 -0.515625 L 1.21875 -0.515625 L 1.21875 -4.671875 L 0.359375 -4.671875 L 0.359375 -5.1875 L 2.125 -5.1875 L 2.125 -4.265625 C 2.289062 -4.617188 2.503906 -4.882812 2.765625 -5.0625 C 3.035156 -5.238281 3.34375 -5.328125 3.6875 -5.328125 C 4.257812 -5.328125 4.679688 -5.160156 4.953125 -4.828125 C 5.222656 -4.503906 5.359375 -3.992188 5.359375 -3.296875 L 5.359375 -0.515625 L 6.15625 -0.515625 L 6.15625 0 L 3.6875 0 L 3.6875 -0.515625 L 4.453125 -0.515625 L 4.453125 -3.015625 C 4.453125 -3.648438 4.375 -4.082031 4.21875 -4.3125 C 4.0625 -4.550781 3.789062 -4.671875 3.40625 -4.671875 C 2.988281 -4.671875 2.671875 -4.519531 2.453125 -4.21875 C 2.234375 -3.914062 2.125 -3.472656 2.125 -2.890625 L 2.125 -0.515625 L 2.90625 -0.515625 L 2.90625 0 Z M 0.40625 0 "/>
</g>
<g id="glyph-0-12">
<path d="M 5.140625 -1.5625 C 5.015625 -1.007812 4.769531 -0.585938 4.40625 -0.296875 C 4.050781 -0.00390625 3.585938 0.140625 3.015625 0.140625 C 2.253906 0.140625 1.644531 -0.109375 1.1875 -0.609375 C 0.726562 -1.109375 0.5 -1.769531 0.5 -2.59375 C 0.5 -3.425781 0.726562 -4.085938 1.1875 -4.578125 C 1.644531 -5.078125 2.253906 -5.328125 3.015625 -5.328125 C 3.335938 -5.328125 3.660156 -5.289062 3.984375 -5.21875 C 4.316406 -5.144531 4.644531 -5.03125 4.96875 -4.875 L 4.96875 -3.546875 L 4.453125 -3.546875 C 4.378906 -3.992188 4.226562 -4.320312 4 -4.53125 C 3.769531 -4.738281 3.441406 -4.84375 3.015625 -4.84375 C 2.535156 -4.84375 2.171875 -4.65625 1.921875 -4.28125 C 1.671875 -3.90625 1.546875 -3.34375 1.546875 -2.59375 C 1.546875 -1.84375 1.664062 -1.28125 1.90625 -0.90625 C 2.15625 -0.53125 2.523438 -0.34375 3.015625 -0.34375 C 3.398438 -0.34375 3.707031 -0.441406 3.9375 -0.640625 C 4.175781 -0.847656 4.335938 -1.15625 4.421875 -1.5625 Z M 5.140625 -1.5625 "/>
</g>
<g id="glyph-0-13">
<path d="M 3.015625 -0.34375 C 3.492188 -0.34375 3.851562 -0.53125 4.09375 -0.90625 C 4.34375 -1.289062 4.46875 -1.851562 4.46875 -2.59375 C 4.46875 -3.34375 4.34375 -3.90625 4.09375 -4.28125 C 3.851562 -4.65625 3.492188 -4.84375 3.015625 -4.84375 C 2.523438 -4.84375 2.15625 -4.65625 1.90625 -4.28125 C 1.664062 -3.90625 1.546875 -3.34375 1.546875 -2.59375 C 1.546875 -1.851562 1.671875 -1.289062 1.921875 -0.90625 C 2.171875 -0.53125 2.535156 -0.34375 3.015625 -0.34375 Z M 3.015625 0.140625 C 2.253906 0.140625 1.644531 -0.109375 1.1875 -0.609375 C 0.726562 -1.109375 0.5 -1.769531 0.5 -2.59375 C 0.5 -3.425781 0.726562 -4.085938 1.1875 -4.578125 C 1.644531 -5.078125 2.253906 -5.328125 3.015625 -5.328125 C 3.765625 -5.328125 4.367188 -5.078125 4.828125 -4.578125 C 5.285156 -4.085938 5.515625 -3.425781 5.515625 -2.59375 C 5.515625 -1.769531 5.285156 -1.109375 4.828125 -0.609375 C 4.367188 -0.109375 3.765625 0.140625 3.015625 0.140625 Z M 3.015625 0.140625 "/>
</g>
<g id="glyph-1-0">
<path d="M 0.640625 0 L 0.03125 0 L 2.3125 -2.484375 L 1.171875 -4.671875 L 0.53125 -4.671875 L 0.625 -5.1875 L 1.9375 -5.1875 L 3.015625 -3.171875 L 4.890625 -5.1875 L 5.5 -5.1875 L 3.25 -2.75 L 4.4375 -0.515625 L 5.109375 -0.515625 L 5.015625 0 L 3.65625 0 L 2.546875 -2.078125 Z M 0.640625 0 "/>
</g>
<g id="glyph-2-0">
<path d="M -6.375 -4.984375 L -6.375 -4.5 C -6.4375 -4.519531 -6.5 -4.53125 -6.5625 -4.53125 C -6.71875 -4.53125 -6.835938 -4.488281 -6.921875 -4.40625 C -7.054688 -4.300781 -7.125 -4.117188 -7.125 -3.859375 C -7.125 -3.523438 -7.03125 -3.269531 -6.84375 -3.09375 C -6.65625 -2.925781 -6.328125 -2.796875 -5.859375 -2.703125 L -5.1875 -2.5625 L -5.1875 -4.015625 L -4.671875 -3.921875 L -4.671875 -2.46875 L 0.328125 -1.5 C 0.898438 -1.382812 1.332031 -1.144531 1.625 -0.78125 C 1.925781 -0.425781 2.078125 0.0390625 2.078125 0.625 L 1.609375 0.5625 C 1.609375 0.21875 1.515625 -0.0351562 1.328125 -0.203125 C 1.128906 -0.367188 0.796875 -0.5 0.328125 -0.59375 L -4.671875 -1.5625 L -4.671875 -0.703125 L -5.1875 -0.8125 L -5.1875 -1.671875 L -5.84375 -1.796875 C -6.425781 -1.910156 -6.863281 -2.144531 -7.15625 -2.5 C -7.445312 -2.863281 -7.59375 -3.335938 -7.59375 -3.921875 C -7.59375 -4.140625 -7.570312 -4.351562 -7.53125 -4.5625 C -7.5 -4.769531 -7.441406 -4.972656 -7.359375 -5.171875 Z M -6.375 -4.984375 "/>
</g>
<g id="glyph-2-1">
<path d="M 0 -0.640625 L 0 -0.03125 L -2.484375 -2.3125 L -4.671875 -1.171875 L -4.671875 -0.53125 L -5.1875 -0.625 L -5.1875 -1.9375 L -3.171875 -3.015625 L -5.1875 -4.890625 L -5.1875 -5.5 L -2.75 -3.25 L -0.515625 -4.4375 L -0.515625 -5.109375 L 0 -5.015625 L 0 -3.65625 L -2.078125 -2.546875 Z M 0 -0.640625 "/>
</g>
<g id="glyph-3-0">
<path d="M 1.5625 -2.703125 C 1.207031 -2.035156 0.644531 -1.53125 -0.125 -1.1875 C -0.894531 -0.84375 -1.859375 -0.671875 -3.015625 -0.671875 C -4.171875 -0.671875 -5.132812 -0.84375 -5.90625 -1.1875 C -6.675781 -1.53125 -7.238281 -2.035156 -7.59375 -2.703125 L -7.125 -2.703125 C -6.78125 -2.285156 -6.289062 -1.984375 -5.65625 -1.796875 C -5.03125 -1.609375 -4.148438 -1.515625 -3.015625 -1.515625 C -1.878906 -1.515625 -1 -1.609375 -0.375 -1.796875 C 0.25 -1.984375 0.734375 -2.285156 1.078125 -2.703125 Z M 1.5625 -2.703125 "/>
</g>
<g id="glyph-3-1">
<path d="M 1.5625 -0.609375 L 1.078125 -0.609375 C 0.734375 -1.023438 0.25 -1.328125 -0.375 -1.515625 C -1 -1.703125 -1.878906 -1.796875 -3.015625 -1.796875 C -4.148438 -1.796875 -5.03125 -1.703125 -5.65625 -1.515625 C -6.289062 -1.328125 -6.78125 -1.023438 -7.125 -0.609375 L -7.59375 -0.609375 C -7.238281 -1.273438 -6.675781 -1.78125 -5.90625 -2.125 C -5.132812 -2.46875 -4.171875 -2.640625 -3.015625 -2.640625 C -1.859375 -2.640625 -0.894531 -2.46875 -0.125 -2.125 C 0.644531 -1.78125 1.207031 -1.273438 1.5625 -0.609375 Z M 1.5625 -0.609375 "/>
</g>
<g id="glyph-4-0">
<path d="M 1.390625 -2.875 C 1.648438 -3.300781 1.613281 -3.765625 1.28125 -4.265625 C 0.957031 -4.765625 0.332031 -5.304688 -0.59375 -5.890625 C -1.53125 -6.472656 -2.296875 -6.804688 -2.890625 -6.890625 C -3.492188 -6.972656 -3.925781 -6.800781 -4.1875 -6.375 C -4.445312 -5.957031 -4.410156 -5.492188 -4.078125 -4.984375 C -3.753906 -4.484375 -3.125 -3.941406 -2.1875 -3.359375 C -1.257812 -2.773438 -0.5 -2.441406 0.09375 -2.359375 C 0.695312 -2.285156 1.128906 -2.457031 1.390625 -2.875 Z M 1.8125 -2.609375 C 1.394531 -1.941406 0.785156 -1.597656 -0.015625 -1.578125 C -0.816406 -1.554688 -1.722656 -1.863281 -2.734375 -2.5 C -3.753906 -3.132812 -4.421875 -3.816406 -4.734375 -4.546875 C -5.054688 -5.273438 -5.007812 -5.972656 -4.59375 -6.640625 C -4.164062 -7.316406 -3.554688 -7.664062 -2.765625 -7.6875 C -1.972656 -7.707031 -1.066406 -7.398438 -0.046875 -6.765625 C 0.960938 -6.128906 1.628906 -5.445312 1.953125 -4.71875 C 2.285156 -3.988281 2.238281 -3.285156 1.8125 -2.609375 Z M 1.8125 -2.609375 "/>
</g>
<g id="glyph-4-1">
<path d="M 0.0625 -1.078125 C -0.0820312 -1.171875 -0.175781 -1.300781 -0.21875 -1.46875 C -0.257812 -1.632812 -0.234375 -1.796875 -0.140625 -1.953125 C -0.046875 -2.109375 0.0859375 -2.207031 0.265625 -2.25 C 0.441406 -2.289062 0.601562 -2.265625 0.75 -2.171875 C 0.90625 -2.066406 1.003906 -1.925781 1.046875 -1.75 C 1.085938 -1.582031 1.0625 -1.421875 0.96875 -1.265625 C 0.875 -1.109375 0.738281 -1.007812 0.5625 -0.96875 C 0.382812 -0.9375 0.21875 -0.972656 0.0625 -1.078125 Z M 0.0625 -1.078125 "/>
</g>
<g id="glyph-4-2">
<path d="M -3.515625 -8.140625 L -2.8125 -7.71875 L -4.59375 -4.875 L -2.84375 -3.765625 C -2.84375 -3.972656 -2.804688 -4.1875 -2.734375 -4.40625 C -2.660156 -4.632812 -2.546875 -4.867188 -2.390625 -5.109375 C -1.972656 -5.773438 -1.457031 -6.179688 -0.84375 -6.328125 C -0.238281 -6.484375 0.378906 -6.363281 1.015625 -5.96875 C 1.660156 -5.550781 2.046875 -5.03125 2.171875 -4.40625 C 2.296875 -3.789062 2.132812 -3.128906 1.6875 -2.421875 C 1.507812 -2.140625 1.289062 -1.875 1.03125 -1.625 C 0.78125 -1.375 0.488281 -1.132812 0.15625 -0.90625 L -1.046875 -1.65625 L -0.75 -2.125 C -0.34375 -1.914062 0.03125 -1.851562 0.375 -1.9375 C 0.71875 -2.03125 1.015625 -2.28125 1.265625 -2.6875 C 1.546875 -3.125 1.613281 -3.546875 1.46875 -3.953125 C 1.332031 -4.367188 1 -4.75 0.46875 -5.09375 C -0.0625 -5.425781 -0.539062 -5.5625 -0.96875 -5.5 C -1.40625 -5.445312 -1.765625 -5.203125 -2.046875 -4.765625 C -2.191406 -4.515625 -2.28125 -4.265625 -2.3125 -4.015625 C -2.34375 -3.773438 -2.316406 -3.523438 -2.234375 -3.265625 L -2.453125 -2.921875 L -5.5625 -4.875 Z M -3.515625 -8.140625 "/>
</g>
<g id="glyph-4-3">
<path d="M 0.0625 -0.625 L -0.96875 -1.265625 L -0.6875 -1.703125 C -0.363281 -1.503906 -0.0625 -1.453125 0.21875 -1.546875 C 0.507812 -1.648438 0.773438 -1.894531 1.015625 -2.28125 C 1.222656 -2.613281 1.320312 -2.910156 1.3125 -3.171875 C 1.300781 -3.429688 1.171875 -3.640625 0.921875 -3.796875 C 0.722656 -3.921875 0.523438 -3.953125 0.328125 -3.890625 C 0.128906 -3.828125 -0.164062 -3.628906 -0.5625 -3.296875 L -1.09375 -2.859375 C -1.457031 -2.566406 -1.78125 -2.390625 -2.0625 -2.328125 C -2.351562 -2.273438 -2.640625 -2.335938 -2.921875 -2.515625 C -3.316406 -2.765625 -3.535156 -3.101562 -3.578125 -3.53125 C -3.628906 -3.96875 -3.488281 -4.453125 -3.15625 -4.984375 C -3.019531 -5.210938 -2.84375 -5.4375 -2.625 -5.65625 C -2.40625 -5.875 -2.144531 -6.082031 -1.84375 -6.28125 L -0.890625 -5.6875 L -1.171875 -5.265625 C -1.460938 -5.421875 -1.742188 -5.453125 -2.015625 -5.359375 C -2.296875 -5.273438 -2.539062 -5.070312 -2.75 -4.75 C -2.945312 -4.425781 -3.039062 -4.148438 -3.03125 -3.921875 C -3.019531 -3.691406 -2.898438 -3.503906 -2.671875 -3.359375 C -2.492188 -3.242188 -2.304688 -3.210938 -2.109375 -3.265625 C -1.921875 -3.316406 -1.648438 -3.488281 -1.296875 -3.78125 L -0.75 -4.28125 C -0.351562 -4.613281 -0.00390625 -4.8125 0.296875 -4.875 C 0.609375 -4.945312 0.921875 -4.882812 1.234375 -4.6875 C 1.648438 -4.425781 1.878906 -4.054688 1.921875 -3.578125 C 1.960938 -3.109375 1.804688 -2.597656 1.453125 -2.046875 C 1.273438 -1.753906 1.070312 -1.492188 0.84375 -1.265625 C 0.613281 -1.046875 0.351562 -0.832031 0.0625 -0.625 Z M 0.0625 -0.625 "/>
</g>
<g id="glyph-4-4">
<path d="M -5.234375 -4.4375 C -5.367188 -4.519531 -5.453125 -4.632812 -5.484375 -4.78125 C -5.523438 -4.925781 -5.503906 -5.066406 -5.421875 -5.203125 C -5.335938 -5.328125 -5.21875 -5.40625 -5.0625 -5.4375 C -4.914062 -5.476562 -4.773438 -5.457031 -4.640625 -5.375 C -4.523438 -5.300781 -4.445312 -5.191406 -4.40625 -5.046875 C -4.375 -4.898438 -4.398438 -4.757812 -4.484375 -4.625 C -4.566406 -4.488281 -4.679688 -4.40625 -4.828125 -4.375 C -4.984375 -4.34375 -5.117188 -4.363281 -5.234375 -4.4375 Z M 0.6875 -2.078125 L 1.140625 -2.796875 L 1.578125 -2.515625 L 0.1875 -0.296875 L -0.25 -0.578125 L 0.203125 -1.3125 L -3.3125 -3.515625 L -3.765625 -2.78125 L -4.203125 -3.046875 L -3.265625 -4.546875 Z M 0.6875 -2.078125 "/>
</g>
<g id="glyph-4-5">
<path d="M 0.21875 -0.34375 L -0.21875 -0.625 L 0.203125 -1.3125 L -3.3125 -3.515625 L -3.765625 -2.78125 L -4.203125 -3.046875 L -3.265625 -4.546875 L -2.484375 -4.0625 C -2.691406 -4.394531 -2.800781 -4.71875 -2.8125 -5.03125 C -2.820312 -5.351562 -2.738281 -5.660156 -2.5625 -5.953125 C -2.25 -6.429688 -1.878906 -6.703125 -1.453125 -6.765625 C -1.035156 -6.828125 -0.535156 -6.671875 0.046875 -6.296875 L 2.40625 -4.828125 L 2.828125 -5.5 L 3.265625 -5.21875 L 1.953125 -3.125 L 1.515625 -3.40625 L 1.9375 -4.046875 L -0.171875 -5.375 C -0.710938 -5.707031 -1.125 -5.867188 -1.40625 -5.859375 C -1.6875 -5.859375 -1.929688 -5.695312 -2.140625 -5.375 C -2.359375 -5.019531 -2.398438 -4.664062 -2.265625 -4.3125 C -2.128906 -3.96875 -1.816406 -3.640625 -1.328125 -3.328125 L 0.6875 -2.078125 L 1.109375 -2.75 L 1.546875 -2.46875 Z M 0.21875 -0.34375 "/>
</g>
<g id="glyph-4-6">
<path d="M -4.015625 -4.03125 L -4.3125 -3.578125 L -5.40625 -4.265625 C -5.375 -4.648438 -5.304688 -5.019531 -5.203125 -5.375 C -5.097656 -5.726562 -4.957031 -6.050781 -4.78125 -6.34375 C -4.382812 -6.976562 -3.910156 -7.382812 -3.359375 -7.5625 C -2.804688 -7.738281 -2.265625 -7.660156 -1.734375 -7.328125 C -1.128906 -6.941406 -0.671875 -6.066406 -0.359375 -4.703125 C -0.347656 -4.597656 -0.332031 -4.519531 -0.3125 -4.46875 L 0.265625 -1.921875 L 1.890625 -4.5 L 1.125 -4.984375 L 1.421875 -5.453125 L 2.859375 -4.546875 L 0.359375 -0.5625 L -0.09375 -0.84375 L -0.78125 -3.90625 C -0.9375 -4.582031 -1.128906 -5.113281 -1.359375 -5.5 C -1.597656 -5.894531 -1.90625 -6.210938 -2.28125 -6.453125 C -2.695312 -6.710938 -3.085938 -6.804688 -3.453125 -6.734375 C -3.828125 -6.671875 -4.132812 -6.445312 -4.375 -6.0625 C -4.625 -5.664062 -4.71875 -5.300781 -4.65625 -4.96875 C -4.601562 -4.632812 -4.390625 -4.320312 -4.015625 -4.03125 Z M -4.015625 -4.03125 "/>
</g>
<g id="glyph-5-0">
<path d="M 2.765625 -1.46875 C 2.109375 -1.082031 1.363281 -0.945312 0.53125 -1.0625 C -0.300781 -1.1875 -1.207031 -1.554688 -2.1875 -2.171875 C -3.164062 -2.785156 -3.890625 -3.441406 -4.359375 -4.140625 C -4.835938 -4.835938 -5.050781 -5.566406 -5 -6.328125 L -4.59375 -6.078125 C -4.519531 -5.546875 -4.265625 -5.03125 -3.828125 -4.53125 C -3.398438 -4.039062 -2.703125 -3.492188 -1.734375 -2.890625 C -0.773438 -2.285156 0.015625 -1.894531 0.640625 -1.71875 C 1.265625 -1.550781 1.832031 -1.550781 2.34375 -1.71875 Z M 2.765625 -1.46875 "/>
</g>
<g id="glyph-5-1">
<path d="M 1.65625 0.3125 L 1.234375 0.0625 C 1.160156 -0.476562 0.910156 -0.992188 0.484375 -1.484375 C 0.0546875 -1.972656 -0.632812 -2.519531 -1.59375 -3.125 C -2.5625 -3.726562 -3.359375 -4.117188 -3.984375 -4.296875 C -4.617188 -4.472656 -5.191406 -4.472656 -5.703125 -4.296875 L -6.109375 -4.546875 C -5.453125 -4.921875 -4.703125 -5.050781 -3.859375 -4.9375 C -3.023438 -4.820312 -2.117188 -4.457031 -1.140625 -3.84375 C -0.160156 -3.226562 0.5625 -2.566406 1.03125 -1.859375 C 1.5 -1.160156 1.707031 -0.4375 1.65625 0.3125 Z M 1.65625 0.3125 "/>
</g>
<g id="glyph-6-0">
<path d="M 0.34375 -0.546875 L 0.015625 -0.03125 L -0.875 -3.28125 L -3.328125 -3.484375 L -3.671875 -2.9375 L -4.0625 -3.28125 L -3.359375 -4.390625 L -1.078125 -4.234375 L -1.796875 -6.890625 L -1.46875 -7.40625 L -0.59375 -4.21875 L 1.921875 -4.046875 L 2.28125 -4.609375 L 2.671875 -4.25 L 1.9375 -3.09375 L -0.40625 -3.265625 Z M 0.34375 -0.546875 "/>
</g>
<g id="glyph-7-0">
<path d="M 2.296875 0 L 2.296875 -0.625 L 3.40625 -0.625 L 3.40625 -8.046875 L 0.84375 -8.046875 L 0.84375 -6.6875 L 0.125 -6.6875 L 0.125 -8.75 L 7.890625 -8.75 L 7.890625 -6.6875 L 7.171875 -6.6875 L 7.171875 -8.046875 L 4.59375 -8.046875 L 4.59375 -0.625 L 5.71875 -0.625 L 5.71875 0 Z M 2.296875 0 "/>
</g>
<g id="glyph-7-1">
<path d="M 5.734375 -6.234375 L 5.734375 -4.6875 L 5.109375 -4.6875 C 5.097656 -4.988281 5.015625 -5.21875 4.859375 -5.375 C 4.703125 -5.53125 4.476562 -5.609375 4.1875 -5.609375 C 3.65625 -5.609375 3.25 -5.421875 2.96875 -5.046875 C 2.6875 -4.679688 2.546875 -4.15625 2.546875 -3.46875 L 2.546875 -0.625 L 3.796875 -0.625 L 3.796875 0 L 0.5 0 L 0.5 -0.625 L 1.46875 -0.625 L 1.46875 -5.609375 L 0.4375 -5.609375 L 0.4375 -6.234375 L 2.546875 -6.234375 L 2.546875 -5.125 C 2.753906 -5.550781 3.023438 -5.867188 3.359375 -6.078125 C 3.691406 -6.296875 4.097656 -6.40625 4.578125 -6.40625 C 4.742188 -6.40625 4.925781 -6.390625 5.125 -6.359375 C 5.320312 -6.328125 5.523438 -6.285156 5.734375 -6.234375 Z M 5.734375 -6.234375 "/>
</g>
<g id="glyph-7-2">
<path d="M 1.171875 -8.15625 C 1.171875 -8.34375 1.234375 -8.5 1.359375 -8.625 C 1.492188 -8.757812 1.648438 -8.828125 1.828125 -8.828125 C 2.015625 -8.828125 2.171875 -8.757812 2.296875 -8.625 C 2.429688 -8.5 2.5 -8.34375 2.5 -8.15625 C 2.5 -7.976562 2.429688 -7.820312 2.296875 -7.6875 C 2.171875 -7.5625 2.015625 -7.5 1.828125 -7.5 C 1.648438 -7.5 1.492188 -7.5625 1.359375 -7.6875 C 1.234375 -7.820312 1.171875 -7.976562 1.171875 -8.15625 Z M 2.546875 -0.625 L 3.5625 -0.625 L 3.5625 0 L 0.4375 0 L 0.4375 -0.625 L 1.46875 -0.625 L 1.46875 -5.609375 L 0.4375 -5.609375 L 0.4375 -6.234375 L 2.546875 -6.234375 Z M 2.546875 -0.625 "/>
</g>
<g id="glyph-7-3">
<path d="M 6.296875 -5.609375 L 6.296875 -0.140625 C 6.296875 0.753906 6.050781 1.445312 5.5625 1.9375 C 5.070312 2.425781 4.367188 2.671875 3.453125 2.671875 C 3.046875 2.671875 2.65625 2.628906 2.28125 2.546875 C 1.90625 2.472656 1.546875 2.363281 1.203125 2.21875 L 1.203125 0.921875 L 1.765625 0.921875 C 1.835938 1.328125 2.003906 1.625 2.265625 1.8125 C 2.523438 2 2.898438 2.09375 3.390625 2.09375 C 4.023438 2.09375 4.488281 1.910156 4.78125 1.546875 C 5.070312 1.191406 5.21875 0.628906 5.21875 -0.140625 L 5.21875 -0.96875 C 5.007812 -0.582031 4.738281 -0.296875 4.40625 -0.109375 C 4.082031 0.078125 3.679688 0.171875 3.203125 0.171875 C 2.441406 0.171875 1.816406 -0.128906 1.328125 -0.734375 C 0.835938 -1.347656 0.59375 -2.144531 0.59375 -3.125 C 0.59375 -4.09375 0.832031 -4.878906 1.3125 -5.484375 C 1.800781 -6.097656 2.429688 -6.40625 3.203125 -6.40625 C 3.679688 -6.40625 4.082031 -6.3125 4.40625 -6.125 C 4.738281 -5.9375 5.007812 -5.644531 5.21875 -5.25 L 5.21875 -6.234375 L 7.328125 -6.234375 L 7.328125 -5.609375 Z M 5.21875 -3.421875 C 5.21875 -4.171875 5.070312 -4.738281 4.78125 -5.125 C 4.5 -5.519531 4.085938 -5.71875 3.546875 -5.71875 C 2.984375 -5.71875 2.5625 -5.5 2.28125 -5.0625 C 2 -4.625 1.859375 -3.976562 1.859375 -3.125 C 1.859375 -2.257812 2 -1.601562 2.28125 -1.15625 C 2.5625 -0.71875 2.984375 -0.5 3.546875 -0.5 C 4.085938 -0.5 4.5 -0.695312 4.78125 -1.09375 C 5.070312 -1.488281 5.21875 -2.0625 5.21875 -2.8125 Z M 5.21875 -3.421875 "/>
</g>
<g id="glyph-7-4">
<path d="M 3.609375 -0.40625 C 4.191406 -0.40625 4.628906 -0.632812 4.921875 -1.09375 C 5.210938 -1.550781 5.359375 -2.226562 5.359375 -3.125 C 5.359375 -4.007812 5.210938 -4.675781 4.921875 -5.125 C 4.628906 -5.582031 4.191406 -5.8125 3.609375 -5.8125 C 3.035156 -5.8125 2.597656 -5.582031 2.296875 -5.125 C 2.003906 -4.675781 1.859375 -4.007812 1.859375 -3.125 C 1.859375 -2.226562 2.003906 -1.550781 2.296875 -1.09375 C 2.597656 -0.632812 3.035156 -0.40625 3.609375 -0.40625 Z M 3.609375 0.171875 C 2.703125 0.171875 1.972656 -0.125 1.421875 -0.71875 C 0.867188 -1.320312 0.59375 -2.125 0.59375 -3.125 C 0.59375 -4.113281 0.867188 -4.90625 1.421875 -5.5 C 1.972656 -6.101562 2.703125 -6.40625 3.609375 -6.40625 C 4.515625 -6.40625 5.242188 -6.101562 5.796875 -5.5 C 6.347656 -4.90625 6.625 -4.113281 6.625 -3.125 C 6.625 -2.125 6.347656 -1.320312 5.796875 -0.71875 C 5.242188 -0.125 4.515625 0.171875 3.609375 0.171875 Z M 3.609375 0.171875 "/>
</g>
<g id="glyph-7-5">
<path d="M 0.5 0 L 0.5 -0.625 L 1.46875 -0.625 L 1.46875 -5.609375 L 0.4375 -5.609375 L 0.4375 -6.234375 L 2.546875 -6.234375 L 2.546875 -5.125 C 2.742188 -5.539062 3 -5.859375 3.3125 -6.078125 C 3.632812 -6.296875 4.007812 -6.40625 4.4375 -6.40625 C 5.125 -6.40625 5.628906 -6.207031 5.953125 -5.8125 C 6.273438 -5.414062 6.4375 -4.800781 6.4375 -3.96875 L 6.4375 -0.625 L 7.390625 -0.625 L 7.390625 0 L 4.421875 0 L 4.421875 -0.625 L 5.34375 -0.625 L 5.34375 -3.625 C 5.34375 -4.382812 5.25 -4.90625 5.0625 -5.1875 C 4.875 -5.46875 4.546875 -5.609375 4.078125 -5.609375 C 3.578125 -5.609375 3.195312 -5.425781 2.9375 -5.0625 C 2.675781 -4.695312 2.546875 -4.164062 2.546875 -3.46875 L 2.546875 -0.625 L 3.484375 -0.625 L 3.484375 0 Z M 0.5 0 "/>
</g>
<g id="glyph-7-6">
<path d="M 6.21875 -5.015625 C 6.425781 -5.472656 6.691406 -5.816406 7.015625 -6.046875 C 7.335938 -6.285156 7.710938 -6.40625 8.140625 -6.40625 C 8.796875 -6.40625 9.28125 -6.203125 9.59375 -5.796875 C 9.914062 -5.390625 10.078125 -4.78125 10.078125 -3.96875 L 10.078125 -0.625 L 11.046875 -0.625 L 11.046875 0 L 8.0625 0 L 8.0625 -0.625 L 9 -0.625 L 9 -3.84375 C 9 -4.476562 8.90625 -4.929688 8.71875 -5.203125 C 8.53125 -5.472656 8.21875 -5.609375 7.78125 -5.609375 C 7.300781 -5.609375 6.9375 -5.425781 6.6875 -5.0625 C 6.4375 -4.695312 6.3125 -4.164062 6.3125 -3.46875 L 6.3125 -0.625 L 7.25 -0.625 L 7.25 0 L 4.296875 0 L 4.296875 -0.625 L 5.234375 -0.625 L 5.234375 -3.875 C 5.234375 -4.5 5.140625 -4.941406 4.953125 -5.203125 C 4.765625 -5.472656 4.453125 -5.609375 4.015625 -5.609375 C 3.535156 -5.609375 3.171875 -5.425781 2.921875 -5.0625 C 2.671875 -4.695312 2.546875 -4.164062 2.546875 -3.46875 L 2.546875 -0.625 L 3.484375 -0.625 L 3.484375 0 L 0.5 0 L 0.5 -0.625 L 1.46875 -0.625 L 1.46875 -5.609375 L 0.4375 -5.609375 L 0.4375 -6.234375 L 2.546875 -6.234375 L 2.546875 -5.125 C 2.742188 -5.539062 2.992188 -5.859375 3.296875 -6.078125 C 3.609375 -6.296875 3.960938 -6.40625 4.359375 -6.40625 C 4.835938 -6.40625 5.238281 -6.28125 5.5625 -6.03125 C 5.882812 -5.789062 6.101562 -5.453125 6.21875 -5.015625 Z M 6.21875 -5.015625 "/>
</g>
<g id="glyph-7-7">
<path d="M 6.5 -3 L 1.859375 -3 L 1.859375 -2.953125 C 1.859375 -2.109375 2.015625 -1.472656 2.328125 -1.046875 C 2.648438 -0.617188 3.117188 -0.40625 3.734375 -0.40625 C 4.203125 -0.40625 4.585938 -0.53125 4.890625 -0.78125 C 5.191406 -1.03125 5.40625 -1.398438 5.53125 -1.890625 L 6.40625 -1.890625 C 6.226562 -1.203125 5.90625 -0.6875 5.4375 -0.34375 C 4.976562 0 4.375 0.171875 3.625 0.171875 C 2.707031 0.171875 1.972656 -0.125 1.421875 -0.71875 C 0.867188 -1.320312 0.59375 -2.125 0.59375 -3.125 C 0.59375 -4.101562 0.863281 -4.894531 1.40625 -5.5 C 1.957031 -6.101562 2.671875 -6.40625 3.546875 -6.40625 C 4.492188 -6.40625 5.21875 -6.113281 5.71875 -5.53125 C 6.21875 -4.945312 6.476562 -4.101562 6.5 -3 Z M 5.234375 -3.625 C 5.210938 -4.351562 5.054688 -4.898438 4.765625 -5.265625 C 4.484375 -5.628906 4.078125 -5.8125 3.546875 -5.8125 C 3.054688 -5.8125 2.664062 -5.625 2.375 -5.25 C 2.09375 -4.882812 1.921875 -4.34375 1.859375 -3.625 Z M 5.234375 -3.625 "/>
</g>
<g id="glyph-7-8">
<path d="M 1.296875 -5.609375 L 0.34375 -5.609375 L 0.34375 -6.234375 L 1.296875 -6.234375 L 1.296875 -8.15625 L 2.375 -8.15625 L 2.375 -6.234375 L 4.40625 -6.234375 L 4.40625 -5.609375 L 2.375 -5.609375 L 2.375 -1.640625 C 2.375 -1.117188 2.425781 -0.78125 2.53125 -0.625 C 2.632812 -0.476562 2.820312 -0.40625 3.09375 -0.40625 C 3.375 -0.40625 3.578125 -0.488281 3.703125 -0.65625 C 3.835938 -0.820312 3.910156 -1.09375 3.921875 -1.46875 L 4.734375 -1.46875 C 4.703125 -0.894531 4.546875 -0.476562 4.265625 -0.21875 C 3.984375 0.0390625 3.5625 0.171875 3 0.171875 C 2.375 0.171875 1.929688 0.0351562 1.671875 -0.234375 C 1.421875 -0.515625 1.296875 -0.984375 1.296875 -1.640625 Z M 1.296875 -5.609375 "/>
</g>
<g id="glyph-7-9">
<path d="M 6.171875 -1.875 C 6.015625 -1.207031 5.71875 -0.695312 5.28125 -0.34375 C 4.851562 0 4.296875 0.171875 3.609375 0.171875 C 2.703125 0.171875 1.972656 -0.125 1.421875 -0.71875 C 0.867188 -1.320312 0.59375 -2.125 0.59375 -3.125 C 0.59375 -4.113281 0.867188 -4.90625 1.421875 -5.5 C 1.972656 -6.101562 2.703125 -6.40625 3.609375 -6.40625 C 4.003906 -6.40625 4.394531 -6.359375 4.78125 -6.265625 C 5.175781 -6.171875 5.570312 -6.03125 5.96875 -5.84375 L 5.96875 -4.25 L 5.34375 -4.25 C 5.257812 -4.789062 5.078125 -5.1875 4.796875 -5.4375 C 4.523438 -5.6875 4.132812 -5.8125 3.625 -5.8125 C 3.039062 -5.8125 2.597656 -5.585938 2.296875 -5.140625 C 2.003906 -4.691406 1.859375 -4.019531 1.859375 -3.125 C 1.859375 -2.21875 2.003906 -1.535156 2.296875 -1.078125 C 2.597656 -0.628906 3.039062 -0.40625 3.625 -0.40625 C 4.082031 -0.40625 4.453125 -0.523438 4.734375 -0.765625 C 5.015625 -1.015625 5.203125 -1.382812 5.296875 -1.875 Z M 6.171875 -1.875 "/>
</g>
<g id="glyph-7-10">
</g>
<g id="glyph-7-11">
<path d="M 5.75 -4.34375 C 6.019531 -4.269531 6.253906 -4.144531 6.453125 -3.96875 C 6.648438 -3.789062 6.828125 -3.539062 6.984375 -3.21875 L 8.25 -0.625 L 9.328125 -0.625 L 9.328125 0 L 7.265625 0 L 5.890625 -2.78125 C 5.628906 -3.320312 5.390625 -3.671875 5.171875 -3.828125 C 4.953125 -3.984375 4.648438 -4.0625 4.265625 -4.0625 L 2.96875 -4.0625 L 2.96875 -0.625 L 4.203125 -0.625 L 4.203125 0 L 0.65625 0 L 0.65625 -0.625 L 1.78125 -0.625 L 1.78125 -8.125 L 0.65625 -8.125 L 0.65625 -8.75 L 5.09375 -8.75 C 5.945312 -8.75 6.601562 -8.546875 7.0625 -8.140625 C 7.53125 -7.734375 7.765625 -7.15625 7.765625 -6.40625 C 7.765625 -5.8125 7.59375 -5.335938 7.25 -4.984375 C 6.914062 -4.640625 6.414062 -4.425781 5.75 -4.34375 Z M 2.96875 -4.6875 L 4.6875 -4.6875 C 5.28125 -4.6875 5.71875 -4.828125 6 -5.109375 C 6.28125 -5.390625 6.421875 -5.820312 6.421875 -6.40625 C 6.421875 -7 6.28125 -7.429688 6 -7.703125 C 5.71875 -7.984375 5.28125 -8.125 4.6875 -8.125 L 2.96875 -8.125 Z M 2.96875 -4.6875 "/>
</g>
<g id="glyph-7-12">
<path d="M 0.671875 -0.34375 L 0.671875 -1.796875 L 1.296875 -1.796875 C 1.304688 -1.335938 1.445312 -0.988281 1.71875 -0.75 C 2 -0.519531 2.410156 -0.40625 2.953125 -0.40625 C 3.441406 -0.40625 3.8125 -0.492188 4.0625 -0.671875 C 4.3125 -0.859375 4.4375 -1.128906 4.4375 -1.484375 C 4.4375 -1.753906 4.34375 -1.972656 4.15625 -2.140625 C 3.976562 -2.304688 3.585938 -2.484375 2.984375 -2.671875 L 2.203125 -2.9375 C 1.671875 -3.113281 1.285156 -3.328125 1.046875 -3.578125 C 0.804688 -3.835938 0.6875 -4.171875 0.6875 -4.578125 C 0.6875 -5.140625 0.894531 -5.582031 1.3125 -5.90625 C 1.726562 -6.238281 2.304688 -6.40625 3.046875 -6.40625 C 3.378906 -6.40625 3.722656 -6.359375 4.078125 -6.265625 C 4.441406 -6.179688 4.816406 -6.054688 5.203125 -5.890625 L 5.203125 -4.53125 L 4.59375 -4.53125 C 4.570312 -4.9375 4.425781 -5.25 4.15625 -5.46875 C 3.894531 -5.695312 3.535156 -5.8125 3.078125 -5.8125 C 2.628906 -5.8125 2.285156 -5.734375 2.046875 -5.578125 C 1.816406 -5.421875 1.703125 -5.179688 1.703125 -4.859375 C 1.703125 -4.597656 1.789062 -4.382812 1.96875 -4.21875 C 2.144531 -4.0625 2.5 -3.90625 3.03125 -3.75 L 3.875 -3.484375 C 4.46875 -3.296875 4.894531 -3.0625 5.15625 -2.78125 C 5.414062 -2.507812 5.546875 -2.160156 5.546875 -1.734375 C 5.546875 -1.140625 5.316406 -0.671875 4.859375 -0.328125 C 4.410156 0.00390625 3.789062 0.171875 3 0.171875 C 2.59375 0.171875 2.195312 0.125 1.8125 0.03125 C 1.4375 -0.0507812 1.054688 -0.175781 0.671875 -0.34375 Z M 0.671875 -0.34375 "/>
</g>
<g id="glyph-7-13">
<path d="M 2.46875 -3.421875 L 2.46875 -2.8125 C 2.46875 -2.0625 2.609375 -1.488281 2.890625 -1.09375 C 3.179688 -0.695312 3.597656 -0.5 4.140625 -0.5 C 4.691406 -0.5 5.109375 -0.71875 5.390625 -1.15625 C 5.671875 -1.601562 5.8125 -2.257812 5.8125 -3.125 C 5.8125 -3.976562 5.671875 -4.625 5.390625 -5.0625 C 5.109375 -5.5 4.691406 -5.71875 4.140625 -5.71875 C 3.597656 -5.71875 3.179688 -5.519531 2.890625 -5.125 C 2.609375 -4.738281 2.46875 -4.171875 2.46875 -3.421875 Z M 1.390625 -5.609375 L 0.34375 -5.609375 L 0.34375 -6.234375 L 2.46875 -6.234375 L 2.46875 -5.25 C 2.675781 -5.644531 2.941406 -5.9375 3.265625 -6.125 C 3.585938 -6.3125 3.992188 -6.40625 4.484375 -6.40625 C 5.242188 -6.40625 5.863281 -6.097656 6.34375 -5.484375 C 6.832031 -4.878906 7.078125 -4.09375 7.078125 -3.125 C 7.078125 -2.144531 6.832031 -1.347656 6.34375 -0.734375 C 5.863281 -0.128906 5.242188 0.171875 4.484375 0.171875 C 3.992188 0.171875 3.585938 0.078125 3.265625 -0.109375 C 2.941406 -0.296875 2.675781 -0.582031 2.46875 -0.96875 L 2.46875 1.875 L 3.484375 1.875 L 3.484375 2.5 L 0.34375 2.5 L 0.34375 1.875 L 1.390625 1.875 Z M 1.390625 -5.609375 "/>
</g>
<g id="glyph-8-0">
<path d="M 1.984375 -2.96875 L 3.015625 -2.96875 C 3.398438 -2.96875 3.691406 -3.070312 3.890625 -3.28125 C 4.097656 -3.488281 4.203125 -3.789062 4.203125 -4.1875 C 4.203125 -4.59375 4.097656 -4.898438 3.890625 -5.109375 C 3.691406 -5.316406 3.398438 -5.421875 3.015625 -5.421875 L 1.984375 -5.421875 Z M 0.4375 0 L 0.4375 -0.421875 L 1.1875 -0.421875 L 1.1875 -5.421875 L 0.4375 -5.421875 L 0.4375 -5.828125 L 3.203125 -5.828125 C 3.785156 -5.828125 4.242188 -5.679688 4.578125 -5.390625 C 4.921875 -5.097656 5.09375 -4.695312 5.09375 -4.1875 C 5.09375 -3.6875 4.921875 -3.285156 4.578125 -2.984375 C 4.242188 -2.691406 3.785156 -2.546875 3.203125 -2.546875 L 1.984375 -2.546875 L 1.984375 -0.421875 L 2.875 -0.421875 L 2.875 0 Z M 0.4375 0 "/>
</g>
<g id="glyph-8-1">
<path d="M 4.34375 -2 L 1.234375 -2 L 1.234375 -1.96875 C 1.234375 -1.40625 1.335938 -0.984375 1.546875 -0.703125 C 1.765625 -0.421875 2.078125 -0.28125 2.484375 -0.28125 C 2.804688 -0.28125 3.066406 -0.359375 3.265625 -0.515625 C 3.460938 -0.679688 3.601562 -0.929688 3.6875 -1.265625 L 4.265625 -1.265625 C 4.148438 -0.804688 3.9375 -0.460938 3.625 -0.234375 C 3.320312 -0.00390625 2.921875 0.109375 2.421875 0.109375 C 1.804688 0.109375 1.316406 -0.0859375 0.953125 -0.484375 C 0.585938 -0.890625 0.40625 -1.421875 0.40625 -2.078125 C 0.40625 -2.734375 0.582031 -3.257812 0.9375 -3.65625 C 1.300781 -4.0625 1.78125 -4.265625 2.375 -4.265625 C 3 -4.265625 3.476562 -4.070312 3.8125 -3.6875 C 4.144531 -3.300781 4.320312 -2.738281 4.34375 -2 Z M 3.484375 -2.421875 C 3.472656 -2.898438 3.375 -3.257812 3.1875 -3.5 C 3 -3.75 2.726562 -3.875 2.375 -3.875 C 2.039062 -3.875 1.773438 -3.75 1.578125 -3.5 C 1.390625 -3.257812 1.273438 -2.898438 1.234375 -2.421875 Z M 3.484375 -2.421875 "/>
</g>
<g id="glyph-8-2">
<path d="M 3.1875 -1.3125 L 3.1875 -2.1875 L 2.265625 -2.1875 C 1.898438 -2.1875 1.628906 -2.109375 1.453125 -1.953125 C 1.285156 -1.796875 1.203125 -1.5625 1.203125 -1.25 C 1.203125 -0.957031 1.289062 -0.726562 1.46875 -0.5625 C 1.644531 -0.394531 1.882812 -0.3125 2.1875 -0.3125 C 2.488281 -0.3125 2.726562 -0.398438 2.90625 -0.578125 C 3.09375 -0.765625 3.1875 -1.007812 3.1875 -1.3125 Z M 3.90625 -2.59375 L 3.90625 -0.421875 L 4.546875 -0.421875 L 4.546875 0 L 3.1875 0 L 3.1875 -0.453125 C 3.03125 -0.253906 2.847656 -0.109375 2.640625 -0.015625 C 2.429688 0.0664062 2.1875 0.109375 1.90625 0.109375 C 1.445312 0.109375 1.082031 -0.0078125 0.8125 -0.25 C 0.539062 -0.5 0.40625 -0.832031 0.40625 -1.25 C 0.40625 -1.675781 0.554688 -2.007812 0.859375 -2.25 C 1.171875 -2.488281 1.609375 -2.609375 2.171875 -2.609375 L 3.1875 -2.609375 L 3.1875 -2.890625 C 3.1875 -3.203125 3.085938 -3.441406 2.890625 -3.609375 C 2.703125 -3.785156 2.4375 -3.875 2.09375 -3.875 C 1.800781 -3.875 1.570312 -3.804688 1.40625 -3.671875 C 1.238281 -3.546875 1.132812 -3.359375 1.09375 -3.109375 L 0.71875 -3.109375 L 0.71875 -3.953125 C 0.96875 -4.054688 1.207031 -4.132812 1.4375 -4.1875 C 1.675781 -4.238281 1.910156 -4.265625 2.140625 -4.265625 C 2.710938 -4.265625 3.148438 -4.117188 3.453125 -3.828125 C 3.753906 -3.546875 3.90625 -3.132812 3.90625 -2.59375 Z M 3.90625 -2.59375 "/>
</g>
<g id="glyph-8-3">
<path d="M 2.296875 0 L 0.28125 0 L 0.28125 -0.421875 L 0.921875 -0.421875 L 0.921875 -5.671875 L 0.234375 -5.671875 L 0.234375 -6.078125 L 1.640625 -6.078125 L 1.640625 -2.125 L 3.390625 -3.734375 L 2.796875 -3.734375 L 2.796875 -4.15625 L 4.671875 -4.15625 L 4.671875 -3.734375 L 3.96875 -3.734375 L 2.734375 -2.59375 L 4.3125 -0.421875 L 4.90625 -0.421875 L 4.90625 0 L 2.859375 0 L 2.859375 -0.421875 L 3.453125 -0.421875 L 2.203125 -2.125 L 1.640625 -1.59375 L 1.640625 -0.421875 L 2.296875 -0.421875 Z M 2.296875 0 "/>
</g>
<g id="glyph-8-4">
</g>
<g id="glyph-8-5">
<path d="M 3.828125 -4.15625 L 3.828125 -3.125 L 3.40625 -3.125 C 3.394531 -3.332031 3.335938 -3.484375 3.234375 -3.578125 C 3.140625 -3.679688 2.992188 -3.734375 2.796875 -3.734375 C 2.441406 -3.734375 2.171875 -3.609375 1.984375 -3.359375 C 1.796875 -3.117188 1.703125 -2.769531 1.703125 -2.3125 L 1.703125 -0.421875 L 2.53125 -0.421875 L 2.53125 0 L 0.328125 0 L 0.328125 -0.421875 L 0.984375 -0.421875 L 0.984375 -3.75 L 0.296875 -3.75 L 0.296875 -4.15625 L 1.703125 -4.15625 L 1.703125 -3.421875 C 1.835938 -3.703125 2.015625 -3.910156 2.234375 -4.046875 C 2.460938 -4.191406 2.734375 -4.265625 3.046875 -4.265625 C 3.160156 -4.265625 3.28125 -4.253906 3.40625 -4.234375 C 3.539062 -4.222656 3.679688 -4.195312 3.828125 -4.15625 Z M 3.828125 -4.15625 "/>
</g>
<g id="glyph-8-6">
<path d="M 4.203125 -3.734375 L 4.203125 -0.09375 C 4.203125 0.507812 4.035156 0.972656 3.703125 1.296875 C 3.378906 1.617188 2.914062 1.78125 2.3125 1.78125 C 2.03125 1.78125 1.765625 1.753906 1.515625 1.703125 C 1.265625 1.648438 1.023438 1.578125 0.796875 1.484375 L 0.796875 0.609375 L 1.171875 0.609375 C 1.222656 0.878906 1.332031 1.078125 1.5 1.203125 C 1.675781 1.328125 1.929688 1.390625 2.265625 1.390625 C 2.679688 1.390625 2.988281 1.269531 3.1875 1.03125 C 3.382812 0.789062 3.484375 0.414062 3.484375 -0.09375 L 3.484375 -0.65625 C 3.335938 -0.394531 3.15625 -0.203125 2.9375 -0.078125 C 2.726562 0.046875 2.460938 0.109375 2.140625 0.109375 C 1.628906 0.109375 1.210938 -0.09375 0.890625 -0.5 C 0.566406 -0.90625 0.40625 -1.429688 0.40625 -2.078125 C 0.40625 -2.734375 0.566406 -3.257812 0.890625 -3.65625 C 1.210938 -4.0625 1.628906 -4.265625 2.140625 -4.265625 C 2.460938 -4.265625 2.726562 -4.203125 2.9375 -4.078125 C 3.15625 -3.953125 3.335938 -3.757812 3.484375 -3.5 L 3.484375 -4.15625 L 4.890625 -4.15625 L 4.890625 -3.734375 Z M 3.484375 -2.28125 C 3.484375 -2.78125 3.382812 -3.160156 3.1875 -3.421875 C 3 -3.679688 2.722656 -3.8125 2.359375 -3.8125 C 1.992188 -3.8125 1.710938 -3.664062 1.515625 -3.375 C 1.328125 -3.082031 1.234375 -2.648438 1.234375 -2.078125 C 1.234375 -1.503906 1.328125 -1.070312 1.515625 -0.78125 C 1.710938 -0.488281 1.992188 -0.34375 2.359375 -0.34375 C 2.722656 -0.34375 3 -0.472656 3.1875 -0.734375 C 3.382812 -0.992188 3.484375 -1.375 3.484375 -1.875 Z M 3.484375 -2.28125 "/>
</g>
<g id="glyph-8-7">
<path d="M 0.78125 -5.4375 C 0.78125 -5.5625 0.820312 -5.664062 0.90625 -5.75 C 1 -5.84375 1.101562 -5.890625 1.21875 -5.890625 C 1.34375 -5.890625 1.445312 -5.84375 1.53125 -5.75 C 1.625 -5.664062 1.671875 -5.5625 1.671875 -5.4375 C 1.671875 -5.320312 1.625 -5.21875 1.53125 -5.125 C 1.445312 -5.039062 1.34375 -5 1.21875 -5 C 1.101562 -5 1 -5.039062 0.90625 -5.125 C 0.820312 -5.21875 0.78125 -5.320312 0.78125 -5.4375 Z M 1.703125 -0.421875 L 2.375 -0.421875 L 2.375 0 L 0.296875 0 L 0.296875 -0.421875 L 0.984375 -0.421875 L 0.984375 -3.734375 L 0.296875 -3.734375 L 0.296875 -4.15625 L 1.703125 -4.15625 Z M 1.703125 -0.421875 "/>
</g>
<g id="glyph-8-8">
<path d="M 2.40625 -0.28125 C 2.789062 -0.28125 3.082031 -0.429688 3.28125 -0.734375 C 3.476562 -1.035156 3.578125 -1.484375 3.578125 -2.078125 C 3.578125 -2.671875 3.476562 -3.117188 3.28125 -3.421875 C 3.082031 -3.722656 2.789062 -3.875 2.40625 -3.875 C 2.019531 -3.875 1.726562 -3.722656 1.53125 -3.421875 C 1.332031 -3.117188 1.234375 -2.671875 1.234375 -2.078125 C 1.234375 -1.484375 1.332031 -1.035156 1.53125 -0.734375 C 1.726562 -0.429688 2.019531 -0.28125 2.40625 -0.28125 Z M 2.40625 0.109375 C 1.800781 0.109375 1.316406 -0.0859375 0.953125 -0.484375 C 0.585938 -0.890625 0.40625 -1.421875 0.40625 -2.078125 C 0.40625 -2.742188 0.585938 -3.273438 0.953125 -3.671875 C 1.316406 -4.066406 1.800781 -4.265625 2.40625 -4.265625 C 3.007812 -4.265625 3.492188 -4.066406 3.859375 -3.671875 C 4.234375 -3.273438 4.421875 -2.742188 4.421875 -2.078125 C 4.421875 -1.421875 4.234375 -0.890625 3.859375 -0.484375 C 3.492188 -0.0859375 3.007812 0.109375 2.40625 0.109375 Z M 2.40625 0.109375 "/>
</g>
<g id="glyph-8-9">
<path d="M 0.328125 0 L 0.328125 -0.421875 L 0.984375 -0.421875 L 0.984375 -3.734375 L 0.296875 -3.734375 L 0.296875 -4.15625 L 1.703125 -4.15625 L 1.703125 -3.421875 C 1.828125 -3.703125 1.992188 -3.910156 2.203125 -4.046875 C 2.421875 -4.191406 2.671875 -4.265625 2.953125 -4.265625 C 3.410156 -4.265625 3.75 -4.132812 3.96875 -3.875 C 4.1875 -3.613281 4.296875 -3.203125 4.296875 -2.640625 L 4.296875 -0.421875 L 4.9375 -0.421875 L 4.9375 0 L 2.953125 0 L 2.953125 -0.421875 L 3.5625 -0.421875 L 3.5625 -2.421875 C 3.5625 -2.921875 3.5 -3.265625 3.375 -3.453125 C 3.25 -3.648438 3.03125 -3.75 2.71875 -3.75 C 2.382812 -3.75 2.128906 -3.625 1.953125 -3.375 C 1.785156 -3.132812 1.703125 -2.78125 1.703125 -2.3125 L 1.703125 -0.421875 L 2.328125 -0.421875 L 2.328125 0 Z M 0.328125 0 "/>
</g>
<g id="glyph-9-0">
<path d="M 2.703125 1.5625 C 2.035156 1.207031 1.53125 0.644531 1.1875 -0.125 C 0.84375 -0.894531 0.671875 -1.859375 0.671875 -3.015625 C 0.671875 -4.171875 0.84375 -5.132812 1.1875 -5.90625 C 1.53125 -6.675781 2.035156 -7.238281 2.703125 -7.59375 L 2.703125 -7.125 C 2.285156 -6.78125 1.984375 -6.289062 1.796875 -5.65625 C 1.609375 -5.03125 1.515625 -4.148438 1.515625 -3.015625 C 1.515625 -1.878906 1.609375 -1 1.796875 -0.375 C 1.984375 0.25 2.285156 0.734375 2.703125 1.078125 Z M 2.703125 1.5625 "/>
</g>
<g id="glyph-9-1">
<path d="M 0.609375 1.5625 L 0.609375 1.078125 C 1.023438 0.734375 1.328125 0.25 1.515625 -0.375 C 1.703125 -1 1.796875 -1.878906 1.796875 -3.015625 C 1.796875 -4.148438 1.703125 -5.03125 1.515625 -5.65625 C 1.328125 -6.289062 1.023438 -6.78125 0.609375 -7.125 L 0.609375 -7.59375 C 1.273438 -7.238281 1.78125 -6.675781 2.125 -5.90625 C 2.46875 -5.132812 2.640625 -4.171875 2.640625 -3.015625 C 2.640625 -1.859375 2.46875 -0.894531 2.125 -0.125 C 1.78125 0.644531 1.273438 1.207031 0.609375 1.5625 Z M 0.609375 1.5625 "/>
</g>
</g>
<clipPath id="clip-0">
<path clip-rule="nonzero" d="M 43 28 L 421 28 L 421 247 L 43 247 Z M 43 28 "/>
</clipPath>
<clipPath id="clip-1">
<path clip-rule="nonzero" d="M 43 136 L 45 136 L 45 139 L 43 139 Z M 43 136 "/>
</clipPath>
<clipPath id="clip-2">
<path clip-rule="nonzero" d="M 43 135 L 45 135 L 45 139 L 43 139 Z M 43 135 "/>
</clipPath>
<clipPath id="clip-3">
<path clip-rule="nonzero" d="M 43 28 L 421 28 L 421 246 L 43 246 Z M 43 28 "/>
</clipPath>
<clipPath id="clip-4">
<path clip-rule="nonzero" d="M 43 135 L 45 135 L 45 139 L 43 139 Z M 43 135 "/>
</clipPath>
<clipPath id="clip-5">
<path clip-rule="nonzero" d="M 43 135 L 45 135 L 45 140 L 43 140 Z M 43 135 "/>
</clipPath>
<clipPath id="clip-6">
<path clip-rule="nonzero" d="M 418 139 L 422 139 L 422 143 L 418 143 Z M 418 139 "/>
</clipPath>
<clipPath id="clip-7">
<path clip-rule="nonzero" d="M 43 82 L 421 82 L 421 192 L 43 192 Z M 43 82 "/>
</clipPath>
</defs>
<path fill-rule="nonzero" fill="rgb(100%, 100%, 100%)" fill-opacity="1" d="M 0 0 L 425.195312 0 L 425.195312 283.464844 L 0 283.464844 Z M 0 0 "/>
<path fill="none" stroke-width="0.2" stroke-linecap="butt" stroke-linejoin="miter" stroke="rgb(85%, 85%, 85%)" stroke-opacity="1" stroke-miterlimit="10" d="M 42.835938 21.835938 L 42.835938 252.628906 "/>
<path fill="none" stroke-width="0.2" stroke-linecap="butt" stroke-linejoin="miter" stroke="rgb(85%, 85%, 85%)" stroke-opacity="1" stroke-miterlimit="10" d="M 103.238281 21.835938 L 103.238281 252.628906 "/>
<path fill="none" stroke-width="0.2" stroke-linecap="butt" stroke-linejoin="miter" stroke="rgb(85%, 85%, 85%)" stroke-opacity="1" stroke-miterlimit="10" d="M 163.640625 21.835938 L 163.640625 252.628906 "/>
<path fill="none" stroke-width="0.2" stroke-linecap="butt" stroke-linejoin="miter" stroke="rgb(85%, 85%, 85%)" stroke-opacity="1" stroke-miterlimit="10" d="M 224.046875 21.835938 L 224.046875 252.628906 "/>
<path fill="none" stroke-width="0.2" stroke-linecap="butt" stroke-linejoin="miter" stroke="rgb(85%, 85%, 85%)" stroke-opacity="1" stroke-miterlimit="10" d="M 284.449219 21.835938 L 284.449219 252.628906 "/>
<path fill="none" stroke-width="0.2" stroke-linecap="butt" stroke-linejoin="miter" stroke="rgb(85%, 85%, 85%)" stroke-opacity="1" stroke-miterlimit="10" d="M 344.851562 21.835938 L 344.851562 252.628906 "/>
<path fill="none" stroke-width="0.2" stroke-linecap="butt" stroke-linejoin="miter" stroke="rgb(85%, 85%, 85%)" stroke-opacity="1" stroke-miterlimit="10" d="M 405.257812 21.835938 L 405.257812 252.628906 "/>
<path fill="none" stroke-width="0.2" stroke-linecap="butt" stroke-linejoin="miter" stroke="rgb(85%, 85%, 85%)" stroke-opacity="1" stroke-miterlimit="10" d="M 42.835938 246.175781 L 422.363281 246.175781 "/>
<path fill="none" stroke-width="0.2" stroke-linecap="butt" stroke-linejoin="miter" stroke="rgb(85%, 85%, 85%)" stroke-opacity="1" stroke-miterlimit="10" d="M 42.835938 191.722656 L 422.363281 191.722656 "/>
<path fill="none" stroke-width="0.2" stroke-linecap="butt" stroke-linejoin="miter" stroke="rgb(85%, 85%, 85%)" stroke-opacity="1" stroke-miterlimit="10" d="M 42.835938 137.269531 L 422.363281 137.269531 "/>
<path fill="none" stroke-width="0.2" stroke-linecap="butt" stroke-linejoin="miter" stroke="rgb(85%, 85%, 85%)" stroke-opacity="1" stroke-miterlimit="10" d="M 42.835938 82.820312 L 422.363281 82.820312 "/>
<path fill="none" stroke-width="0.2" stroke-linecap="butt" stroke-linejoin="miter" stroke="rgb(85%, 85%, 85%)" stroke-opacity="1" stroke-miterlimit="10" d="M 42.835938 28.367188 L 422.363281 28.367188 "/>
<path fill="none" stroke-width="0.5" stroke-linecap="butt" stroke-linejoin="miter" stroke="rgb(0%, 0%, 0%)" stroke-opacity="1" stroke-miterlimit="10" d="M 42.835938 21.835938 L 422.363281 21.835938 L 422.363281 252.632812 L 42.835938 252.632812 Z M 42.835938 21.835938 "/>
<path fill="none" stroke-width="0.5" stroke-linecap="butt" stroke-linejoin="miter" stroke="rgb(0%, 0%, 0%)" stroke-opacity="1" stroke-miterlimit="10" d="M 42.835938 252.628906 L 42.835938 248.628906 "/>
<g fill="rgb(0%, 0%, 0%)" fill-opacity="1">
<use xlink:href="#glyph-0-0" x="39.652344" y="264.742188"/>
</g>
<path fill="none" stroke-width="0.5" stroke-linecap="butt" stroke-linejoin="miter" stroke="rgb(0%, 0%, 0%)" stroke-opacity="1" stroke-miterlimit="10" d="M 103.238281 252.628906 L 103.238281 248.628906 "/>
<g fill="rgb(0%, 0%, 0%)" fill-opacity="1">
<use xlink:href="#glyph-0-1" x="100.058594" y="264.742188"/>
</g>
<path fill="none" stroke-width="0.5" stroke-linecap="butt" stroke-linejoin="miter" stroke="rgb(0%, 0%, 0%)" stroke-opacity="1" stroke-miterlimit="10" d="M 163.640625 252.628906 L 163.640625 248.628906 "/>
<g fill="rgb(0%, 0%, 0%)" fill-opacity="1">
<use xlink:href="#glyph-0-2" x="160.460938" y="264.742188"/>
</g>
<path fill="none" stroke-width="0.5" stroke-linecap="butt" stroke-linejoin="miter" stroke="rgb(0%, 0%, 0%)" stroke-opacity="1" stroke-miterlimit="10" d="M 224.046875 252.628906 L 224.046875 248.628906 "/>
<g fill="rgb(0%, 0%, 0%)" fill-opacity="1">
<use xlink:href="#glyph-0-3" x="220.863281" y="264.742188"/>
</g>
<path fill="none" stroke-width="0.5" stroke-linecap="butt" stroke-linejoin="miter" stroke="rgb(0%, 0%, 0%)" stroke-opacity="1" stroke-miterlimit="10" d="M 284.449219 252.628906 L 284.449219 248.628906 "/>
<g fill="rgb(0%, 0%, 0%)" fill-opacity="1">
<use xlink:href="#glyph-0-4" x="281.269531" y="264.742188"/>
</g>
<path fill="none" stroke-width="0.5" stroke-linecap="butt" stroke-linejoin="miter" stroke="rgb(0%, 0%, 0%)" stroke-opacity="1" stroke-miterlimit="10" d="M 344.851562 252.628906 L 344.851562 248.628906 "/>
<g fill="rgb(0%, 0%, 0%)" fill-opacity="1">
<use xlink:href="#glyph-0-5" x="341.671875" y="264.675781"/>
</g>
<path fill="none" stroke-width="0.5" stroke-linecap="butt" stroke-linejoin="miter" stroke="rgb(0%, 0%, 0%)" stroke-opacity="1" stroke-miterlimit="10" d="M 405.257812 252.628906 L 405.257812 248.628906 "/>
<g fill="rgb(0%, 0%, 0%)" fill-opacity="1">
<use xlink:href="#glyph-0-6" x="402.074219" y="264.742188"/>
</g>
<g fill="rgb(0%, 0%, 0%)" fill-opacity="1">
<use xlink:href="#glyph-1-0" x="229.777344" y="277.78125"/>
</g>
<path fill="none" stroke-width="0.5" stroke-linecap="butt" stroke-linejoin="miter" stroke="rgb(0%, 0%, 0%)" stroke-opacity="1" stroke-miterlimit="10" d="M 42.835938 246.175781 L 46.835938 246.175781 "/>
<g fill="rgb(0%, 0%, 0%)" fill-opacity="1">
<use xlink:href="#glyph-0-7" x="19.550781" y="249.976562"/>
<use xlink:href="#glyph-0-1" x="22.929688" y="249.976562"/>
<use xlink:href="#glyph-0-8" x="29.291992" y="249.976562"/>
<use xlink:href="#glyph-0-0" x="32.470703" y="249.976562"/>
</g>
<path fill="none" stroke-width="0.5" stroke-linecap="butt" stroke-linejoin="miter" stroke="rgb(0%, 0%, 0%)" stroke-opacity="1" stroke-miterlimit="10" d="M 42.835938 191.722656 L 46.835938 191.722656 "/>
<g fill="rgb(0%, 0%, 0%)" fill-opacity="1">
<use xlink:href="#glyph-0-7" x="19.550781" y="195.523438"/>
<use xlink:href="#glyph-0-0" x="22.929688" y="195.523438"/>
<use xlink:href="#glyph-0-8" x="29.291992" y="195.523438"/>
<use xlink:href="#glyph-0-5" x="32.470703" y="195.523438"/>
</g>
<path fill="none" stroke-width="0.5" stroke-linecap="butt" stroke-linejoin="miter" stroke="rgb(0%, 0%, 0%)" stroke-opacity="1" stroke-miterlimit="10" d="M 42.835938 137.269531 L 46.835938 137.269531 "/>
<g fill="rgb(0%, 0%, 0%)" fill-opacity="1">
<use xlink:href="#glyph-0-0" x="22.929688" y="141.070312"/>
<use xlink:href="#glyph-0-8" x="29.291992" y="141.070312"/>
<use xlink:href="#glyph-0-0" x="32.470703" y="141.070312"/>
</g>
<path fill="none" stroke-width="0.5" stroke-linecap="butt" stroke-linejoin="miter" stroke="rgb(0%, 0%, 0%)" stroke-opacity="1" stroke-miterlimit="10" d="M 42.835938 82.820312 L 46.835938 82.820312 "/>
<g fill="rgb(0%, 0%, 0%)" fill-opacity="1">
<use xlink:href="#glyph-0-0" x="22.929688" y="86.617188"/>
<use xlink:href="#glyph-0-8" x="29.291992" y="86.617188"/>
<use xlink:href="#glyph-0-5" x="32.470703" y="86.617188"/>
</g>
<path fill="none" stroke-width="0.5" stroke-linecap="butt" stroke-linejoin="miter" stroke="rgb(0%, 0%, 0%)" stroke-opacity="1" stroke-miterlimit="10" d="M 42.835938 28.367188 L 46.835938 28.367188 "/>
<g fill="rgb(0%, 0%, 0%)" fill-opacity="1">
<use xlink:href="#glyph-0-1" x="22.929688" y="32.167969"/>
<use xlink:href="#glyph-0-8" x="29.291992" y="32.167969"/>
<use xlink:href="#glyph-0-0" x="32.470703" y="32.167969"/>
</g>
<g fill="rgb(0%, 0%, 0%)" fill-opacity="1">
<use xlink:href="#glyph-2-0" x="14.417969" y="146.867188"/>
</g>
<g fill="rgb(0%, 0%, 0%)" fill-opacity="1">
<use xlink:href="#glyph-3-0" x="15.289062" y="140.46875"/>
</g>
<g fill="rgb(0%, 0%, 0%)" fill-opacity="1">
<use xlink:href="#glyph-2-1" x="14.417969" y="137.152344"/>
</g>
<g fill="rgb(0%, 0%, 0%)" fill-opacity="1">
<use xlink:href="#glyph-3-1" x="15.289062" y="131.515625"/>
</g>
<g clip-path="url(#clip-0)">
<path fill="none" stroke-width="0.5" stroke-linecap="butt" stroke-linejoin="round" stroke="rgb(76.9%, 30.6%, 32.2%)" stroke-opacity="1" stroke-miterlimit="10" d="M 42.835938 137.269531 L 57.9375 110.328125 L 73.035156 85.058594 L 88.136719 63.039062 L 103.238281 45.632812 L 118.339844 33.921875 L 133.441406 28.640625 L 148.542969 30.109375 L 163.640625 38.246094 L 178.742188 52.535156 L 193.84375 72.09375 L 208.945312 95.707031 L 224.046875 121.902344 L 239.148438 149.054688 L 254.246094 175.472656 L 269.347656 199.515625 L 284.449219 219.691406 L 299.550781 234.738281 L 314.652344 243.726562 L 329.753906 246.097656 L 344.851562 241.703125 L 359.953125 230.8125 L 375.054688 214.105469 L 390.15625 192.625 L 405.257812 167.699219 L 420.359375 140.882812 "/>
</g>
<g clip-path="url(#clip-1)">
<path fill-rule="nonzero" fill="rgb(100%, 100%, 100%)" fill-opacity="1" d="M 44.085938 137.269531 C 44.085938 138.9375 41.585938 138.9375 41.585938 137.269531 C 41.585938 135.605469 44.085938 135.605469 44.085938 137.269531 "/>
</g>
<g clip-path="url(#clip-2)">
<path fill="none" stroke-width="0.5" stroke-linecap="butt" stroke-linejoin="round" stroke="rgb(76.9%, 30.6%, 32.2%)" stroke-opacity="1" stroke-miterlimit="10" d="M 44.085938 137.269531 C 44.085938 138.9375 41.585938 138.9375 41.585938 137.269531 C 41.585938 135.605469 44.085938 135.605469 44.085938 137.269531 "/>
</g>
<path fill-rule="nonzero" fill="rgb(100%, 100%, 100%)" fill-opacity="1" stroke-width="0.5" stroke-linecap="butt" stroke-linejoin="round" stroke="rgb(76.9%, 30.6%, 32.2%)" stroke-opacity="1" stroke-miterlimit="10" d="M 59.1875 110.328125 C 59.1875 111.992188 56.6875 111.992188 56.6875 110.328125 C 56.6875 108.660156 59.1875 108.660156 59.1875 110.328125 "/>
<path fill-rule="nonzero" fill="rgb(100%, 100%, 100%)" fill-opacity="1" stroke-width="0.5" stroke-linecap="butt" stroke-linejoin="round" stroke="rgb(76.9%, 30.6%, 32.2%)" stroke-opacity="1" stroke-miterlimit="10" d="M 74.285156 85.058594 C 74.285156 86.726562 71.785156 86.726562 71.785156 85.058594 C 71.785156 83.394531 74.285156 83.394531 74.285156 85.058594 "/>
<path fill-rule="nonzero" fill="rgb(100%, 100%, 100%)" fill-opacity="1" stroke-width="0.5" stroke-linecap="butt" stroke-linejoin="round" stroke="rgb(76.9%, 30.6%, 32.2%)" stroke-opacity="1" stroke-miterlimit="10" d="M 89.386719 63.039062 C 89.386719 64.703125 86.886719 64.703125 86.886719 63.039062 C 86.886719 61.371094 89.386719 61.371094 89.386719 63.039062 "/>
<path fill-rule="nonzero" fill="rgb(100%, 100%, 100%)" fill-opacity="1" stroke-width="0.5" stroke-linecap="butt" stroke-linejoin="round" stroke="rgb(76.9%, 30.6%, 32.2%)" stroke-opacity="1" stroke-miterlimit="10" d="M 104.488281 45.632812 C 104.488281 47.296875 101.988281 47.296875 101.988281 45.632812 C 101.988281 43.964844 104.488281 43.964844 104.488281 45.632812 "/>
<path fill-rule="nonzero" fill="rgb(100%, 100%, 100%)" fill-opacity="1" stroke-width="0.5" stroke-linecap="butt" stroke-linejoin="round" stroke="rgb(76.9%, 30.6%, 32.2%)" stroke-opacity="1" stroke-miterlimit="10" d="M 119.589844 33.921875 C 119.589844 35.589844 117.089844 35.589844 117.089844 33.921875 C 117.089844 32.253906 119.589844 32.253906 119.589844 33.921875 "/>
<path fill-rule="nonzero" fill="rgb(100%, 100%, 100%)" fill-opacity="1" stroke-width="0.5" stroke-linecap="butt" stroke-linejoin="round" stroke="rgb(76.9%, 30.6%, 32.2%)" stroke-opacity="1" stroke-miterlimit="10" d="M 134.691406 28.640625 C 134.691406 30.304688 132.191406 30.304688 132.191406 28.640625 C 132.191406 26.972656 134.691406 26.972656 134.691406 28.640625 "/>
<path fill-rule="nonzero" fill="rgb(100%, 100%, 100%)" fill-opacity="1" stroke-width="0.5" stroke-linecap="butt" stroke-linejoin="round" stroke="rgb(76.9%, 30.6%, 32.2%)" stroke-opacity="1" stroke-miterlimit="10" d="M 149.792969 30.109375 C 149.792969 31.777344 147.292969 31.777344 147.292969 30.109375 C 147.292969 28.445312 149.792969 28.445312 149.792969 30.109375 "/>
<path fill-rule="nonzero" fill="rgb(100%, 100%, 100%)" fill-opacity="1" stroke-width="0.5" stroke-linecap="butt" stroke-linejoin="round" stroke="rgb(76.9%, 30.6%, 32.2%)" stroke-opacity="1" stroke-miterlimit="10" d="M 164.890625 38.246094 C 164.890625 39.910156 162.390625 39.910156 162.390625 38.246094 C 162.390625 36.578125 164.890625 36.578125 164.890625 38.246094 "/>
<path fill-rule="nonzero" fill="rgb(100%, 100%, 100%)" fill-opacity="1" stroke-width="0.5" stroke-linecap="butt" stroke-linejoin="round" stroke="rgb(76.9%, 30.6%, 32.2%)" stroke-opacity="1" stroke-miterlimit="10" d="M 179.992188 52.535156 C 179.992188 54.203125 177.492188 54.203125 177.492188 52.535156 C 177.492188 50.867188 179.992188 50.867188 179.992188 52.535156 "/>
<path fill-rule="nonzero" fill="rgb(100%, 100%, 100%)" fill-opacity="1" stroke-width="0.5" stroke-linecap="butt" stroke-linejoin="round" stroke="rgb(76.9%, 30.6%, 32.2%)" stroke-opacity="1" stroke-miterlimit="10" d="M 195.09375 72.09375 C 195.09375 73.761719 192.59375 73.761719 192.59375 72.09375 C 192.59375 70.429688 195.09375 70.429688 195.09375 72.09375 "/>
<path fill-rule="nonzero" fill="rgb(100%, 100%, 100%)" fill-opacity="1" stroke-width="0.5" stroke-linecap="butt" stroke-linejoin="round" stroke="rgb(76.9%, 30.6%, 32.2%)" stroke-opacity="1" stroke-miterlimit="10" d="M 210.195312 95.707031 C 210.195312 97.371094 207.695312 97.371094 207.695312 95.707031 C 207.695312 94.039062 210.195312 94.039062 210.195312 95.707031 "/>
<path fill-rule="nonzero" fill="rgb(100%, 100%, 100%)" fill-opacity="1" stroke-width="0.5" stroke-linecap="butt" stroke-linejoin="round" stroke="rgb(76.9%, 30.6%, 32.2%)" stroke-opacity="1" stroke-miterlimit="10" d="M 225.296875 121.902344 C 225.296875 123.570312 222.796875 123.570312 222.796875 121.902344 C 222.796875 120.234375 225.296875 120.234375 225.296875 121.902344 "/>
<path fill-rule="nonzero" fill="rgb(100%, 100%, 100%)" fill-opacity="1" stroke-width="0.5" stroke-linecap="butt" stroke-linejoin="round" stroke="rgb(76.9%, 30.6%, 32.2%)" stroke-opacity="1" stroke-miterlimit="10" d="M 240.398438 149.054688 C 240.398438 150.71875 237.898438 150.71875 237.898438 149.054688 C 237.898438 147.386719 240.398438 147.386719 240.398438 149.054688 "/>
<path fill-rule="nonzero" fill="rgb(100%, 100%, 100%)" fill-opacity="1" stroke-width="0.5" stroke-linecap="butt" stroke-linejoin="round" stroke="rgb(76.9%, 30.6%, 32.2%)" stroke-opacity="1" stroke-miterlimit="10" d="M 255.496094 175.472656 C 255.496094 177.140625 252.996094 177.140625 252.996094 175.472656 C 252.996094 173.804688 255.496094 173.804688 255.496094 175.472656 "/>
<path fill-rule="nonzero" fill="rgb(100%, 100%, 100%)" fill-opacity="1" stroke-width="0.5" stroke-linecap="butt" stroke-linejoin="round" stroke="rgb(76.9%, 30.6%, 32.2%)" stroke-opacity="1" stroke-miterlimit="10" d="M 270.597656 199.515625 C 270.597656 201.183594 268.097656 201.183594 268.097656 199.515625 C 268.097656 197.847656 270.597656 197.847656 270.597656 199.515625 "/>
<path fill-rule="nonzero" fill="rgb(100%, 100%, 100%)" fill-opacity="1" stroke-width="0.5" stroke-linecap="butt" stroke-linejoin="round" stroke="rgb(76.9%, 30.6%, 32.2%)" stroke-opacity="1" stroke-miterlimit="10" d="M 285.699219 219.691406 C 285.699219 221.355469 283.199219 221.355469 283.199219 219.691406 C 283.199219 218.023438 285.699219 218.023438 285.699219 219.691406 "/>
<path fill-rule="nonzero" fill="rgb(100%, 100%, 100%)" fill-opacity="1" stroke-width="0.5" stroke-linecap="butt" stroke-linejoin="round" stroke="rgb(76.9%, 30.6%, 32.2%)" stroke-opacity="1" stroke-miterlimit="10" d="M 300.800781 234.738281 C 300.800781 236.40625 298.300781 236.40625 298.300781 234.738281 C 298.300781 233.070312 300.800781 233.070312 300.800781 234.738281 "/>
<path fill-rule="nonzero" fill="rgb(100%, 100%, 100%)" fill-opacity="1" stroke-width="0.5" stroke-linecap="butt" stroke-linejoin="round" stroke="rgb(76.9%, 30.6%, 32.2%)" stroke-opacity="1" stroke-miterlimit="10" d="M 315.902344 243.726562 C 315.902344 245.394531 313.402344 245.394531 313.402344 243.726562 C 313.402344 242.0625 315.902344 242.0625 315.902344 243.726562 "/>
<path fill-rule="nonzero" fill="rgb(100%, 100%, 100%)" fill-opacity="1" stroke-width="0.5" stroke-linecap="butt" stroke-linejoin="round" stroke="rgb(76.9%, 30.6%, 32.2%)" stroke-opacity="1" stroke-miterlimit="10" d="M 331.003906 246.097656 C 331.003906 247.765625 328.503906 247.765625 328.503906 246.097656 C 328.503906 244.429688 331.003906 244.429688 331.003906 246.097656 "/>
<path fill-rule="nonzero" fill="rgb(100%, 100%, 100%)" fill-opacity="1" stroke-width="0.5" stroke-linecap="butt" stroke-linejoin="round" stroke="rgb(76.9%, 30.6%, 32.2%)" stroke-opacity="1" stroke-miterlimit="10" d="M 346.101562 241.703125 C 346.101562 243.367188 343.601562 243.367188 343.601562 241.703125 C 343.601562 240.035156 346.101562 240.035156 346.101562 241.703125 "/>
<path fill-rule="nonzero" fill="rgb(100%, 100%, 100%)" fill-opacity="1" stroke-width="0.5" stroke-linecap="butt" stroke-linejoin="round" stroke="rgb(76.9%, 30.6%, 32.2%)" stroke-opacity="1" stroke-miterlimit="10" d="M 361.203125 230.8125 C 361.203125 232.480469 358.703125 232.480469 358.703125 230.8125 C 358.703125 229.144531 361.203125 229.144531 361.203125 230.8125 "/>
<path fill-rule="nonzero" fill="rgb(100%, 100%, 100%)" fill-opacity="1" stroke-width="0.5" stroke-linecap="butt" stroke-linejoin="round" stroke="rgb(76.9%, 30.6%, 32.2%)" stroke-opacity="1" stroke-miterlimit="10" d="M 376.304688 214.105469 C 376.304688 215.773438 373.804688 215.773438 373.804688 214.105469 C 373.804688 212.441406 376.304688 212.441406 376.304688 214.105469 "/>
<path fill-rule="nonzero" fill="rgb(100%, 100%, 100%)" fill-opacity="1" stroke-width="0.5" stroke-linecap="butt" stroke-linejoin="round" stroke="rgb(76.9%, 30.6%, 32.2%)" stroke-opacity="1" stroke-miterlimit="10" d="M 391.40625 192.625 C 391.40625 194.292969 388.90625 194.292969 388.90625 192.625 C 388.90625 190.957031 391.40625 190.957031 391.40625 192.625 "/>
<path fill-rule="nonzero" fill="rgb(100%, 100%, 100%)" fill-opacity="1" stroke-width="0.5" stroke-linecap="butt" stroke-linejoin="round" stroke="rgb(76.9%, 30.6%, 32.2%)" stroke-opacity="1" stroke-miterlimit="10" d="M 406.507812 167.699219 C 406.507812 169.367188 404.007812 169.367188 404.007812 167.699219 C 404.007812 166.035156 406.507812 166.035156 406.507812 167.699219 "/>
<path fill-rule="nonzero" fill="rgb(100%, 100%, 100%)" fill-opacity="1" stroke-width="0.5" stroke-linecap="butt" stroke-linejoin="round" stroke="rgb(76.9%, 30.6%, 32.2%)" stroke-opacity="1" stroke-miterlimit="10" d="M 421.609375 140.882812 C 421.609375 142.550781 419.109375 142.550781 419.109375 140.882812 C 419.109375 139.21875 421.609375 139.21875 421.609375 140.882812 "/>
<g clip-path="url(#clip-3)">
<path fill="none" stroke-width="0.5" stroke-linecap="butt" stroke-linejoin="round" stroke="rgb(25.490196%, 41.176471%, 88.235294%)" stroke-opacity="1" stroke-dasharray="2 1.2" stroke-dashoffset="0.520694" stroke-miterlimit="10" d="M 42.835938 28.367188 L 57.9375 31.753906 L 73.035156 41.699219 L 88.136719 57.585938 L 103.238281 78.429688 L 118.339844 102.929688 L 133.441406 129.566406 L 148.542969 156.683594 L 163.640625 182.589844 L 178.742188 205.679688 L 193.84375 224.519531 L 208.945312 237.929688 L 224.046875 245.085938 L 239.148438 245.535156 L 254.246094 239.253906 L 269.347656 226.632812 L 284.449219 208.457031 L 299.550781 185.851562 L 314.652344 160.226562 L 329.753906 133.175781 L 344.851562 106.378906 L 359.953125 81.503906 L 375.054688 60.09375 L 390.15625 43.484375 L 405.257812 32.703125 L 420.359375 28.425781 "/>
</g>
<g clip-path="url(#clip-4)">
<path fill-rule="nonzero" fill="rgb(100%, 100%, 100%)" fill-opacity="1" d="M 42.835938 135.769531 L 41.335938 137.269531 L 42.835938 138.769531 L 44.335938 137.269531 Z M 42.835938 135.769531 "/>
</g>
<g clip-path="url(#clip-5)">
<path fill="none" stroke-width="0.5" stroke-linecap="butt" stroke-linejoin="round" stroke="rgb(0%, 50.196078%, 0%)" stroke-opacity="1" stroke-miterlimit="10" d="M 42.835938 135.769531 L 41.335938 137.269531 L 42.835938 138.769531 L 44.335938 137.269531 Z M 42.835938 135.769531 "/>
</g>
<path fill-rule="nonzero" fill="rgb(100%, 100%, 100%)" fill-opacity="1" stroke-width="0.5" stroke-linecap="butt" stroke-linejoin="round" stroke="rgb(0%, 50.196078%, 0%)" stroke-opacity="1" stroke-miterlimit="10" d="M 57.9375 109.664062 L 56.4375 111.164062 L 57.9375 112.664062 L 59.4375 111.164062 Z M 57.9375 109.664062 "/>
<path fill-rule="nonzero" fill="rgb(100%, 100%, 100%)" fill-opacity="1" stroke-width="0.5" stroke-linecap="butt" stroke-linejoin="round" stroke="rgb(0%, 50.196078%, 0%)" stroke-opacity="1" stroke-miterlimit="10" d="M 73.035156 89.949219 L 71.535156 91.449219 L 73.035156 92.949219 L 74.535156 91.449219 Z M 73.035156 89.949219 "/>
<path fill-rule="nonzero" fill="rgb(100%, 100%, 100%)" fill-opacity="1" stroke-width="0.5" stroke-linecap="butt" stroke-linejoin="round" stroke="rgb(0%, 50.196078%, 0%)" stroke-opacity="1" stroke-miterlimit="10" d="M 88.136719 81.457031 L 86.636719 82.957031 L 88.136719 84.457031 L 89.636719 82.957031 Z M 88.136719 81.457031 "/>
<path fill-rule="nonzero" fill="rgb(100%, 100%, 100%)" fill-opacity="1" stroke-width="0.5" stroke-linecap="butt" stroke-linejoin="round" stroke="rgb(0%, 50.196078%, 0%)" stroke-opacity="1" stroke-miterlimit="10" d="M 103.238281 86.257812 L 101.738281 87.757812 L 103.238281 89.257812 L 104.738281 87.757812 Z M 103.238281 86.257812 "/>
<path fill-rule="nonzero" fill="rgb(100%, 100%, 100%)" fill-opacity="1" stroke-width="0.5" stroke-linecap="butt" stroke-linejoin="round" stroke="rgb(0%, 50.196078%, 0%)" stroke-opacity="1" stroke-miterlimit="10" d="M 118.339844 103.183594 L 116.839844 104.683594 L 118.339844 106.183594 L 119.839844 104.683594 Z M 118.339844 103.183594 "/>
<path fill-rule="nonzero" fill="rgb(100%, 100%, 100%)" fill-opacity="1" stroke-width="0.5" stroke-linecap="butt" stroke-linejoin="round" stroke="rgb(0%, 50.196078%, 0%)" stroke-opacity="1" stroke-miterlimit="10" d="M 133.441406 128.085938 L 131.941406 129.585938 L 133.441406 131.085938 L 134.941406 129.585938 Z M 133.441406 128.085938 "/>
<path fill-rule="nonzero" fill="rgb(100%, 100%, 100%)" fill-opacity="1" stroke-width="0.5" stroke-linecap="butt" stroke-linejoin="round" stroke="rgb(0%, 50.196078%, 0%)" stroke-opacity="1" stroke-miterlimit="10" d="M 148.542969 154.871094 L 147.042969 156.371094 L 148.542969 157.871094 L 150.042969 156.371094 Z M 148.542969 154.871094 "/>
<path fill-rule="nonzero" fill="rgb(100%, 100%, 100%)" fill-opacity="1" stroke-width="0.5" stroke-linecap="butt" stroke-linejoin="round" stroke="rgb(0%, 50.196078%, 0%)" stroke-opacity="1" stroke-miterlimit="10" d="M 163.640625 176.980469 L 162.140625 178.480469 L 163.640625 179.980469 L 165.140625 178.480469 Z M 163.640625 176.980469 "/>
<path fill-rule="nonzero" fill="rgb(100%, 100%, 100%)" fill-opacity="1" stroke-width="0.5" stroke-linecap="butt" stroke-linejoin="round" stroke="rgb(0%, 50.196078%, 0%)" stroke-opacity="1" stroke-miterlimit="10" d="M 178.742188 189 L 177.242188 190.5 L 178.742188 192 L 180.242188 190.5 Z M 178.742188 189 "/>
<path fill-rule="nonzero" fill="rgb(100%, 100%, 100%)" fill-opacity="1" stroke-width="0.5" stroke-linecap="butt" stroke-linejoin="round" stroke="rgb(0%, 50.196078%, 0%)" stroke-opacity="1" stroke-miterlimit="10" d="M 193.84375 187.984375 L 192.34375 189.484375 L 193.84375 190.984375 L 195.34375 189.484375 Z M 193.84375 187.984375 "/>
<path fill-rule="nonzero" fill="rgb(100%, 100%, 100%)" fill-opacity="1" stroke-width="0.5" stroke-linecap="butt" stroke-linejoin="round" stroke="rgb(0%, 50.196078%, 0%)" stroke-opacity="1" stroke-miterlimit="10" d="M 208.945312 174.1875 L 207.445312 175.6875 L 208.945312 177.1875 L 210.445312 175.6875 Z M 208.945312 174.1875 "/>
<path fill-rule="nonzero" fill="rgb(100%, 100%, 100%)" fill-opacity="1" stroke-width="0.5" stroke-linecap="butt" stroke-linejoin="round" stroke="rgb(0%, 50.196078%, 0%)" stroke-opacity="1" stroke-miterlimit="10" d="M 224.046875 150.984375 L 222.546875 152.484375 L 224.046875 153.984375 L 225.546875 152.484375 Z M 224.046875 150.984375 "/>
<path fill-rule="nonzero" fill="rgb(100%, 100%, 100%)" fill-opacity="1" stroke-width="0.5" stroke-linecap="butt" stroke-linejoin="round" stroke="rgb(0%, 50.196078%, 0%)" stroke-opacity="1" stroke-miterlimit="10" d="M 239.148438 124.058594 L 237.648438 125.558594 L 239.148438 127.058594 L 240.648438 125.558594 Z M 239.148438 124.058594 "/>
<path fill-rule="nonzero" fill="rgb(100%, 100%, 100%)" fill-opacity="1" stroke-width="0.5" stroke-linecap="butt" stroke-linejoin="round" stroke="rgb(0%, 50.196078%, 0%)" stroke-opacity="1" stroke-miterlimit="10" d="M 254.246094 99.996094 L 252.746094 101.496094 L 254.246094 102.996094 L 255.746094 101.496094 Z M 254.246094 99.996094 "/>
<path fill-rule="nonzero" fill="rgb(100%, 100%, 100%)" fill-opacity="1" stroke-width="0.5" stroke-linecap="butt" stroke-linejoin="round" stroke="rgb(0%, 50.196078%, 0%)" stroke-opacity="1" stroke-miterlimit="10" d="M 269.347656 84.695312 L 267.847656 86.195312 L 269.347656 87.695312 L 270.847656 86.195312 Z M 269.347656 84.695312 "/>
<path fill-rule="nonzero" fill="rgb(100%, 100%, 100%)" fill-opacity="1" stroke-width="0.5" stroke-linecap="butt" stroke-linejoin="round" stroke="rgb(0%, 50.196078%, 0%)" stroke-opacity="1" stroke-miterlimit="10" d="M 284.449219 81.898438 L 282.949219 83.398438 L 284.449219 84.898438 L 285.949219 83.398438 Z M 284.449219 81.898438 "/>
<path fill-rule="nonzero" fill="rgb(100%, 100%, 100%)" fill-opacity="1" stroke-width="0.5" stroke-linecap="butt" stroke-linejoin="round" stroke="rgb(0%, 50.196078%, 0%)" stroke-opacity="1" stroke-miterlimit="10" d="M 299.550781 92.292969 L 298.050781 93.792969 L 299.550781 95.292969 L 301.050781 93.792969 Z M 299.550781 92.292969 "/>
<path fill-rule="nonzero" fill="rgb(100%, 100%, 100%)" fill-opacity="1" stroke-width="0.5" stroke-linecap="butt" stroke-linejoin="round" stroke="rgb(0%, 50.196078%, 0%)" stroke-opacity="1" stroke-miterlimit="10" d="M 314.652344 113.328125 L 313.152344 114.828125 L 314.652344 116.328125 L 316.152344 114.828125 Z M 314.652344 113.328125 "/>
<path fill-rule="nonzero" fill="rgb(100%, 100%, 100%)" fill-opacity="1" stroke-width="0.5" stroke-linecap="butt" stroke-linejoin="round" stroke="rgb(0%, 50.196078%, 0%)" stroke-opacity="1" stroke-miterlimit="10" d="M 329.753906 139.863281 L 328.253906 141.363281 L 329.753906 142.863281 L 331.253906 141.363281 Z M 329.753906 139.863281 "/>
<path fill-rule="nonzero" fill="rgb(100%, 100%, 100%)" fill-opacity="1" stroke-width="0.5" stroke-linecap="butt" stroke-linejoin="round" stroke="rgb(0%, 50.196078%, 0%)" stroke-opacity="1" stroke-miterlimit="10" d="M 344.851562 165.394531 L 343.351562 166.894531 L 344.851562 168.394531 L 346.351562 166.894531 Z M 344.851562 165.394531 "/>
<path fill-rule="nonzero" fill="rgb(100%, 100%, 100%)" fill-opacity="1" stroke-width="0.5" stroke-linecap="butt" stroke-linejoin="round" stroke="rgb(0%, 50.196078%, 0%)" stroke-opacity="1" stroke-miterlimit="10" d="M 359.953125 183.671875 L 358.453125 185.171875 L 359.953125 186.671875 L 361.453125 185.171875 Z M 359.953125 183.671875 "/>
<path fill-rule="nonzero" fill="rgb(100%, 100%, 100%)" fill-opacity="1" stroke-width="0.5" stroke-linecap="butt" stroke-linejoin="round" stroke="rgb(0%, 50.196078%, 0%)" stroke-opacity="1" stroke-miterlimit="10" d="M 375.054688 190.222656 L 373.554688 191.722656 L 375.054688 193.222656 L 376.554688 191.722656 Z M 375.054688 190.222656 "/>
<path fill-rule="nonzero" fill="rgb(100%, 100%, 100%)" fill-opacity="1" stroke-width="0.5" stroke-linecap="butt" stroke-linejoin="round" stroke="rgb(0%, 50.196078%, 0%)" stroke-opacity="1" stroke-miterlimit="10" d="M 390.15625 183.441406 L 388.65625 184.941406 L 390.15625 186.441406 L 391.65625 184.941406 Z M 390.15625 183.441406 "/>
<path fill-rule="nonzero" fill="rgb(100%, 100%, 100%)" fill-opacity="1" stroke-width="0.5" stroke-linecap="butt" stroke-linejoin="round" stroke="rgb(0%, 50.196078%, 0%)" stroke-opacity="1" stroke-miterlimit="10" d="M 405.257812 164.988281 L 403.757812 166.488281 L 405.257812 167.988281 L 406.757812 166.488281 Z M 405.257812 164.988281 "/>
<path fill-rule="nonzero" fill="rgb(100%, 100%, 100%)" fill-opacity="1" d="M 420.359375 139.382812 L 418.859375 140.882812 L 420.359375 142.382812 L 421.859375 140.882812 Z M 420.359375 139.382812 "/>
<g clip-path="url(#clip-6)">
<path fill="none" stroke-width="0.5" stroke-linecap="butt" stroke-linejoin="round" stroke="rgb(0%, 50.196078%, 0%)" stroke-opacity="1" stroke-miterlimit="10" d="M 420.359375 139.382812 L 418.859375 140.882812 L 420.359375 142.382812 L 421.859375 140.882812 Z M 420.359375 139.382812 "/>
</g>
<g clip-path="url(#clip-7)">
<path fill="none" stroke-width="0.5" stroke-linecap="butt" stroke-linejoin="round" stroke="rgb(100%, 54.901961%, 0%)" stroke-opacity="1" stroke-miterlimit="10" d="M 42.835938 137.269531 L 57.9375 111.164062 L 73.035156 91.449219 L 88.136719 82.957031 L 103.238281 87.757812 L 118.339844 104.683594 L 133.441406 129.585938 L 148.542969 156.371094 L 163.640625 178.480469 L 178.742188 190.5 L 193.84375 189.484375 L 208.945312 175.6875 L 224.046875 152.484375 L 239.148438 125.558594 L 254.246094 101.496094 L 269.347656 86.195312 L 284.449219 83.398438 L 299.550781 93.792969 L 314.652344 114.828125 L 329.753906 141.363281 L 344.851562 166.894531 L 359.953125 185.171875 L 375.054688 191.722656 L 390.15625 184.941406 L 405.257812 166.488281 L 420.359375 140.882812 "/>
</g>
<g fill="rgb(0%, 0%, 0%)" fill-opacity="1">
<use xlink:href="#glyph-4-0" x="228.980469" y="136.738281"/>
<use xlink:href="#glyph-4-1" x="232.362635" y="131.349416"/>
<use xlink:href="#glyph-4-2" x="234.05242" y="128.657051"/>
</g>
<g fill="rgb(0%, 0%, 0%)" fill-opacity="1">
<use xlink:href="#glyph-4-3" x="237.859375" y="122.59375"/>
<use xlink:href="#glyph-4-4" x="240.587431" y="118.24709"/>
<use xlink:href="#glyph-4-5" x="242.287599" y="115.538182"/>
</g>
<g fill="rgb(0%, 0%, 0%)" fill-opacity="1">
<use xlink:href="#glyph-5-0" x="245.953125" y="109.527344"/>
</g>
<g fill="rgb(0%, 0%, 0%)" fill-opacity="1">
<use xlink:href="#glyph-4-6" x="247.792969" y="106.765625"/>
</g>
<g fill="rgb(0%, 0%, 0%)" fill-opacity="1">
<use xlink:href="#glyph-6-0" x="251.175781" y="101.375"/>
</g>
<g fill="rgb(0%, 0%, 0%)" fill-opacity="1">
<use xlink:href="#glyph-5-1" x="254.097656" y="96.550781"/>
</g>
<g fill="rgb(0%, 0%, 0%)" fill-opacity="1">
<use xlink:href="#glyph-7-0" x="155" y="12.417969"/>
<use xlink:href="#glyph-7-1" x="163.003906" y="12.417969"/>
<use xlink:href="#glyph-7-2" x="168.740234" y="12.417969"/>
<use xlink:href="#glyph-7-3" x="172.578125" y="12.417969"/>
<use xlink:href="#glyph-7-4" x="180.259766" y="12.417969"/>
<use xlink:href="#glyph-7-5" x="187.484375" y="12.417969"/>
<use xlink:href="#glyph-7-4" x="195.212891" y="12.417969"/>
<use xlink:href="#glyph-7-6" x="202.4375" y="12.417969"/>
<use xlink:href="#glyph-7-7" x="213.816406" y="12.417969"/>
<use xlink:href="#glyph-7-8" x="220.917969" y="12.417969"/>
<use xlink:href="#glyph-7-1" x="225.740234" y="12.417969"/>
<use xlink:href="#glyph-7-2" x="231.476562" y="12.417969"/>
<use xlink:href="#glyph-7-9" x="235.314453" y="12.417969"/>
<use xlink:href="#glyph-7-10" x="242.035156" y="12.417969"/>
<use xlink:href="#glyph-7-11" x="245.849609" y="12.417969"/>
<use xlink:href="#glyph-7-7" x="254.884766" y="12.417969"/>
<use xlink:href="#glyph-7-12" x="261.986328" y="12.417969"/>
<use xlink:href="#glyph-7-13" x="268.144531" y="12.417969"/>
<use xlink:href="#glyph-7-4" x="275.826172" y="12.417969"/>
<use xlink:href="#glyph-7-5" x="283.050781" y="12.417969"/>
<use xlink:href="#glyph-7-12" x="290.779297" y="12.417969"/>
<use xlink:href="#glyph-7-7" x="296.9375" y="12.417969"/>
<use xlink:href="#glyph-7-12" x="304.039062" y="12.417969"/>
</g>
<g fill="rgb(0%, 0%, 0%)" fill-opacity="1">
<use xlink:href="#glyph-8-0" x="278.996094" y="70.144531"/>
<use xlink:href="#glyph-8-1" x="284.378906" y="70.144531"/>
<use xlink:href="#glyph-8-2" x="289.113281" y="70.144531"/>
<use xlink:href="#glyph-8-3" x="293.882812" y="70.144531"/>
<use xlink:href="#glyph-8-4" x="298.730469" y="70.144531"/>
<use xlink:href="#glyph-8-5" x="301.273438" y="70.144531"/>
<use xlink:href="#glyph-8-1" x="305.097656" y="70.144531"/>
<use xlink:href="#glyph-8-6" x="309.832031" y="70.144531"/>
<use xlink:href="#glyph-8-7" x="314.953125" y="70.144531"/>
<use xlink:href="#glyph-8-8" x="317.511719" y="70.144531"/>
<use xlink:href="#glyph-8-9" x="322.328125" y="70.144531"/>
</g>
<path fill="none" stroke-width="0.4" stroke-linecap="butt" stroke-linejoin="round" stroke="rgb(0%, 0%, 0%)" stroke-opacity="1" stroke-miterlimit="10" d="M 303.238281 63.59375 L 303.238281 28.367188 L 137.714844 28.367188 "/>
<path fill-rule="nonzero" fill="rgb(0%, 0%, 0%)" fill-opacity="1" d="M 137.714844 28.367188 L 141.714844 26.566406 L 139.917969 28.367188 L 141.714844 30.167969 Z M 137.714844 28.367188 "/>
<path fill-rule="nonzero" fill="rgb(100%, 100%, 100%)" fill-opacity="1" stroke-width="0.4" stroke-linecap="butt" stroke-linejoin="round" stroke="rgb(0%, 0%, 0%)" stroke-opacity="1" stroke-miterlimit="10" d="M 320.863281 209.046875 L 320.863281 243.515625 C 320.863281 248.128906 320.863281 248.128906 325.476562 248.128906 L 413.246094 248.128906 C 417.863281 248.128906 417.863281 248.128906 417.863281 243.515625 L 417.863281 209.046875 C 417.863281 204.429688 417.863281 204.429688 413.246094 204.429688 L 325.476562 204.429688 C 320.863281 204.429688 320.863281 204.429688 320.863281 209.046875 Z M 320.863281 209.046875 "/>
<path fill="none" stroke-width="0.5" stroke-linecap="butt" stroke-linejoin="round" stroke="rgb(76.9%, 30.6%, 32.2%)" stroke-opacity="1" stroke-miterlimit="10" d="M 325.363281 212.429688 L 344.363281 212.429688 "/>
<path fill-rule="nonzero" fill="rgb(100%, 100%, 100%)" fill-opacity="1" stroke-width="0.5" stroke-linecap="butt" stroke-linejoin="round" stroke="rgb(76.9%, 30.6%, 32.2%)" stroke-opacity="1" stroke-miterlimit="10" d="M 336.113281 212.429688 C 336.113281 214.097656 333.613281 214.097656 333.613281 212.429688 C 333.613281 210.761719 336.113281 210.761719 336.113281 212.429688 "/>
<g fill="rgb(0%, 0%, 0%)" fill-opacity="1">
<use xlink:href="#glyph-0-9" x="353.363281" y="214.894531"/>
<use xlink:href="#glyph-0-10" x="358.495117" y="214.894531"/>
<use xlink:href="#glyph-0-11" x="361.693359" y="214.894531"/>
</g>
<g fill="rgb(0%, 0%, 0%)" fill-opacity="1">
<use xlink:href="#glyph-9-0" x="368.734375" y="215.765625"/>
</g>
<g fill="rgb(0%, 0%, 0%)" fill-opacity="1">
<use xlink:href="#glyph-1-0" x="372.050781" y="214.894531"/>
</g>
<g fill="rgb(0%, 0%, 0%)" fill-opacity="1">
<use xlink:href="#glyph-9-1" x="377.6875" y="215.765625"/>
</g>
<path fill="none" stroke-width="0.5" stroke-linecap="butt" stroke-linejoin="round" stroke="rgb(25.490196%, 41.176471%, 88.235294%)" stroke-opacity="1" stroke-dasharray="2 1.2" stroke-miterlimit="10" d="M 325.363281 225.429688 L 344.363281 225.429688 "/>
<g fill="rgb(0%, 0%, 0%)" fill-opacity="1">
<use xlink:href="#glyph-0-12" x="353.363281" y="227.578125"/>
<use xlink:href="#glyph-0-13" x="358.963867" y="227.578125"/>
<use xlink:href="#glyph-0-9" x="364.984375" y="227.578125"/>
</g>
<g fill="rgb(0%, 0%, 0%)" fill-opacity="1">
<use xlink:href="#glyph-9-0" x="370.714844" y="228.449219"/>
</g>
<g fill="rgb(0%, 0%, 0%)" fill-opacity="1">
<use xlink:href="#glyph-1-0" x="374.03125" y="227.578125"/>
</g>
<g fill="rgb(0%, 0%, 0%)" fill-opacity="1">
<use xlink:href="#glyph-9-1" x="379.671875" y="228.449219"/>
</g>
<path fill-rule="nonzero" fill="rgb(100%, 100%, 100%)" fill-opacity="1" stroke-width="0.5" stroke-linecap="butt" stroke-linejoin="round" stroke="rgb(0%, 50.196078%, 0%)" stroke-opacity="1" stroke-miterlimit="10" d="M 334.863281 236.929688 L 333.363281 238.429688 L 334.863281 239.929688 L 336.363281 238.429688 Z M 334.863281 236.929688 "/>
<g fill="rgb(0%, 0%, 0%)" fill-opacity="1">
<use xlink:href="#glyph-0-9" x="353.363281" y="240.894531"/>
<use xlink:href="#glyph-0-10" x="358.495117" y="240.894531"/>
<use xlink:href="#glyph-0-11" x="361.693359" y="240.894531"/>
</g>
<g fill="rgb(0%, 0%, 0%)" fill-opacity="1">
<use xlink:href="#glyph-9-0" x="368.734375" y="241.765625"/>
</g>
<g fill="rgb(0%, 0%, 0%)" fill-opacity="1">
<use xlink:href="#glyph-1-0" x="372.050781" y="240.894531"/>
</g>
<g fill="rgb(0%, 0%, 0%)" fill-opacity="1">
<use xlink:href="#glyph-9-1" x="377.6875" y="241.765625"/>
</g>
<g fill="rgb(0%, 0%, 0%)" fill-opacity="1">
<use xlink:href="#glyph-0-12" x="381.605469" y="240.894531"/>
<use xlink:href="#glyph-0-13" x="387.206055" y="240.894531"/>
<use xlink:href="#glyph-0-9" x="393.226562" y="240.894531"/>
</g>
<g fill="rgb(0%, 0%, 0%)" fill-opacity="1">
<use xlink:href="#glyph-9-0" x="398.957031" y="241.765625"/>
</g>
<g fill="rgb(0%, 0%, 0%)" fill-opacity="1">
<use xlink:href="#glyph-1-0" x="402.273438" y="240.894531"/>
</g>
<g fill="rgb(0%, 0%, 0%)" fill-opacity="1">
<use xlink:href="#glyph-9-1" x="407.914062" y="241.765625"/>
</g>
</svg>
